<?xml version="1.0" encoding="UTF-8"?>
<svg id="Capa_1" data-name="Capa 1" xmlns="http://www.w3.org/2000/svg" version="1.1" viewBox="0 0 275 294">
  <defs>
    <style>
      .cls-1 {
        fill: #c3096c;
        stroke-width: 0px;
      }
    </style>
  </defs>
  <g>
    <path class="cls-1" d="M29.92,136.25c-.6.96-1.34,1.69-2.22,2.18-.88.49-1.8.7-2.78.62l.54-4.01c.62,0,1.16-.22,1.63-.69s.76-1.09.86-1.87c.1-.76.03-1.37-.21-1.84-.25-.47-.61-.73-1.08-.8-.51-.07-.93.14-1.26.63-.33.49-.72,1.28-1.18,2.38-.44,1.14-.87,2.06-1.27,2.77-.4.71-.96,1.29-1.66,1.75s-1.58.61-2.64.47c-.87-.12-1.63-.48-2.29-1.08-.65-.6-1.12-1.4-1.41-2.39-.29-1-.35-2.13-.18-3.4.25-1.88.93-3.31,2.02-4.3s2.44-1.44,4.05-1.34l-.52,3.81c-.63-.03-1.17.17-1.6.58-.43.42-.7,1.01-.81,1.79-.1.72-.04,1.29.17,1.72.21.42.56.67,1.03.73.53.07.97-.14,1.32-.63s.74-1.28,1.17-2.36c.44-1.1.86-2,1.26-2.7.4-.7.96-1.28,1.67-1.73.71-.45,1.59-.62,2.63-.5.91.12,1.69.48,2.34,1.08.65.6,1.12,1.4,1.4,2.39.28.99.34,2.12.17,3.37-.17,1.29-.56,2.42-1.17,3.38Z"/>
    <path class="cls-1" d="M32.6,100.97l-3.94,10.94c1.11.3,2.1.23,2.95-.22.85-.45,1.45-1.15,1.8-2.13.51-1.4.26-2.62-.73-3.65l1.47-4.08c1.28.95,2.17,2.21,2.66,3.76.49,1.56.41,3.23-.23,5.01-.52,1.44-1.3,2.62-2.36,3.53-1.05.91-2.28,1.48-3.68,1.69-1.4.22-2.87.05-4.4-.5-1.55-.56-2.79-1.36-3.74-2.42-.94-1.05-1.52-2.26-1.75-3.62-.22-1.36-.07-2.78.47-4.26.51-1.42,1.28-2.58,2.3-3.49,1.02-.9,2.2-1.46,3.55-1.68,1.35-.22,2.75-.06,4.21.47.54.19,1.01.41,1.42.63ZM28.69,103.87c-.98-.33-1.88-.26-2.72.21s-1.43,1.21-1.78,2.19c-.34.94-.34,1.83,0,2.67.34.84.98,1.52,1.94,2.03l2.56-7.1Z"/>
    <path class="cls-1" d="M45.44,78.71l-6.24,9.81c1.02.54,2,.68,2.92.43.93-.25,1.67-.81,2.23-1.68.8-1.26.83-2.5.09-3.72l2.33-3.66c1.05,1.21,1.63,2.63,1.77,4.25.13,1.63-.31,3.24-1.32,4.84-.82,1.29-1.84,2.27-3.07,2.93-1.23.66-2.54.94-3.96.85-1.41-.09-2.81-.58-4.18-1.45-1.39-.88-2.43-1.94-3.12-3.17-.69-1.23-.99-2.54-.91-3.91.08-1.38.54-2.73,1.39-4.05.81-1.28,1.81-2.24,3-2.9,1.19-.66,2.47-.95,3.83-.86,1.36.08,2.7.54,4.01,1.37.48.31.9.62,1.25.93ZM40.99,80.68c-.88-.54-1.78-.67-2.7-.39-.92.28-1.65.86-2.22,1.75-.53.84-.73,1.71-.58,2.6s.63,1.7,1.45,2.4l4.05-6.37Z"/>
    <path class="cls-1" d="M64.73,50.83l-2.14,1.78,8.07,9.68-3.13,2.61-8.07-9.68-1.39,1.16-2.11-2.54,1.39-1.16-.51-.62c-1.25-1.5-1.74-2.96-1.48-4.37.26-1.42,1.27-2.82,3.03-4.21l2.17,2.6c-.76.61-1.18,1.17-1.25,1.68s.18,1.11.75,1.8l.42.51,2.14-1.78,2.11,2.54Z"/>
    <path class="cls-1" d="M85.71,33.85l7.69,13.92-3.54,1.96-.97-1.76c-.12.85-.45,1.65-.99,2.4-.54.75-1.24,1.35-2.09,1.83-1.09.6-2.18.9-3.27.9-1.09,0-2.12-.31-3.1-.95-.97-.63-1.8-1.57-2.49-2.81l-4.51-8.17,3.52-1.94,4.23,7.66c.61,1.11,1.36,1.8,2.24,2.09.88.29,1.8.17,2.75-.36.97-.54,1.57-1.25,1.79-2.15.22-.9.03-1.9-.58-3.01l-4.23-7.66,3.54-1.96Z"/>
    <path class="cls-1" d="M100.47,22.54l6.7,20.16-3.81,1.27-6.7-20.16,3.81-1.27Z"/>
    <path class="cls-1" d="M117.73,18.36l3.91,20.88-3.95.74-3.91-20.88,3.95-.74Z"/>
    <path class="cls-1" d="M153.99,23.05c.96-.37,2.02-.49,3.18-.35,1.35.17,2.53.65,3.54,1.45,1.01.8,1.76,1.85,2.24,3.15s.63,2.76.43,4.38c-.2,1.61-.69,3-1.48,4.17-.79,1.17-1.77,2.02-2.95,2.57-1.18.55-2.44.74-3.79.58-1.16-.14-2.15-.51-2.97-1.09-.83-.58-1.47-1.27-1.93-2.06l-1.2,9.77-3.99-.49,2.87-23.3,3.99.49-.28,2.28c.6-.66,1.38-1.17,2.35-1.55ZM159.02,28.64c-.3-.74-.75-1.33-1.34-1.77-.59-.44-1.26-.7-2-.8-.72-.09-1.42.01-2.11.3s-1.26.77-1.74,1.42c-.48.66-.77,1.46-.89,2.41-.12.95-.02,1.8.28,2.55.3.75.75,1.35,1.34,1.8.59.45,1.25.72,1.97.81.74.09,1.45-.01,2.14-.32.68-.3,1.26-.78,1.74-1.43.48-.65.77-1.47.89-2.44.12-.95.02-1.79-.28-2.54Z"/>
    <path class="cls-1" d="M182.21,29.53c.94-.19,1.92-.11,2.94.23l-1.34,4-1.01-.34c-1.2-.4-2.19-.42-2.99-.07-.8.36-1.43,1.24-1.9,2.63l-2.52,7.51-3.81-1.28,5.06-15.07,3.81,1.28-.79,2.34c.76-.63,1.61-1.04,2.55-1.23Z"/>
    <path class="cls-1" d="M191.52,49.49c-.73-1.2-1.08-2.51-1.07-3.94.01-1.43.42-2.84,1.23-4.26.81-1.41,1.83-2.48,3.08-3.2,1.24-.72,2.57-1.07,3.99-1.04,1.42.03,2.79.42,4.12,1.19,1.33.76,2.36,1.75,3.1,2.95.74,1.21,1.11,2.53,1.12,3.97s-.4,2.86-1.21,4.27c-.81,1.41-1.84,2.47-3.1,3.19s-2.6,1.05-4.02,1.02-2.81-.44-4.15-1.21c-1.33-.76-2.36-1.74-3.08-2.94ZM198.39,49.95c.73.01,1.44-.19,2.12-.62.68-.42,1.28-1.08,1.78-1.96.75-1.31.99-2.52.7-3.62-.29-1.1-.92-1.94-1.92-2.51-1-.57-2.03-.7-3.11-.38-1.08.32-1.99,1.14-2.74,2.45s-1,2.51-.75,3.59.88,1.91,1.87,2.48c.63.36,1.31.55,2.04.56Z"/>
    <path class="cls-1" d="M210.92,66.91c-1.13,1.35-2.28,2.04-3.45,2.07s-2.37-.48-3.61-1.52l-1.36-1.15,2.2-2.61.88.74c.47.39.87.58,1.22.56.34-.02.69-.24,1.03-.65l11.95-14.18,3.07,2.59-11.93,14.16ZM221.62,48.35c-.07-.65.11-1.23.54-1.74s.97-.79,1.62-.83c.65-.04,1.25.17,1.81.64.54.46.84,1,.9,1.64.06.64-.12,1.22-.55,1.73-.43.51-.97.79-1.61.84-.64.05-1.23-.16-1.77-.61-.56-.47-.87-1.03-.94-1.67Z"/>
    <path class="cls-1" d="M235,79.12l-7.44-8.93c-.82.81-1.25,1.69-1.3,2.65-.05.96.26,1.84.92,2.63.96,1.15,2.13,1.55,3.52,1.22l2.77,3.33c-1.47.63-3,.76-4.59.39-1.59-.37-2.99-1.28-4.2-2.74-.98-1.18-1.6-2.45-1.85-3.82-.26-1.37-.12-2.71.4-4.03.52-1.32,1.41-2.5,2.66-3.54,1.26-1.05,2.59-1.72,3.97-2,1.38-.28,2.72-.17,4.01.32,1.29.5,2.43,1.35,3.44,2.55.97,1.16,1.58,2.41,1.85,3.75.27,1.34.15,2.64-.35,3.91-.5,1.27-1.34,2.41-2.53,3.4-.44.37-.86.67-1.26.9ZM234.48,74.29c.78-.68,1.18-1.49,1.19-2.45.01-.96-.32-1.84-.99-2.65-.64-.76-1.4-1.21-2.3-1.35-.9-.14-1.81.08-2.73.65l4.83,5.8Z"/>
    <path class="cls-1" d="M245.91,85.84c1.4.03,2.68.41,3.83,1.15,1.15.74,2.07,1.79,2.78,3.15.91,1.75,1.22,3.43.93,5.03s-1.11,3-2.49,4.21l-1.99-3.85c.51-.52.81-1.11.91-1.78.1-.66-.04-1.35-.41-2.07-.53-1.02-1.31-1.64-2.36-1.85-1.05-.21-2.25.03-3.61.74-1.34.69-2.23,1.53-2.66,2.51-.43.98-.38,1.98.14,3,.75,1.44,1.88,2.05,3.4,1.83l1.99,3.85c-1.73.4-3.35.25-4.85-.44-1.5-.69-2.7-1.9-3.59-3.64-.7-1.36-1.03-2.72-.97-4.09.06-1.37.48-2.63,1.27-3.79.79-1.16,1.91-2.12,3.38-2.88,1.46-.76,2.89-1.12,4.3-1.09Z"/>
    <path class="cls-1" d="M258.23,114.2l-7.38,2.18c-.51.15-.85.39-1,.7-.16.32-.15.77.03,1.35l.53,1.79-3.25.96-.71-2.42c-.96-3.25.14-5.34,3.3-6.27l7.35-2.17-.54-1.82,3.17-.93.54,1.82,3.77-1.11,1.15,3.88-3.77,1.11,1.01,3.41-3.17.93-1.01-3.41Z"/>
    <path class="cls-1" d="M250.1,160.72c.61-.96,1.36-1.67,2.24-2.16.88-.48,1.81-.68,2.78-.6l-.58,4.01c-.62-.01-1.16.21-1.63.68-.47.46-.77,1.08-.88,1.86-.11.76-.04,1.37.2,1.84s.6.74,1.07.81c.51.07.93-.13,1.26-.62.33-.48.73-1.27,1.2-2.37.45-1.13.89-2.05,1.3-2.76.41-.71.97-1.28,1.67-1.73.7-.45,1.58-.6,2.65-.44.87.13,1.63.49,2.28,1.1.65.61,1.11,1.41,1.39,2.4.28,1,.33,2.13.15,3.4-.27,1.88-.96,3.3-2.05,4.29-1.1.98-2.45,1.42-4.06,1.3l.55-3.81c.63.03,1.17-.16,1.6-.57.44-.41.71-1,.82-1.78.1-.72.05-1.29-.16-1.72-.21-.43-.55-.67-1.02-.74-.53-.08-.97.13-1.32.62-.35.49-.75,1.27-1.2,2.35-.45,1.09-.88,1.99-1.29,2.68-.41.7-.97,1.27-1.68,1.71-.71.45-1.59.61-2.63.48-.91-.13-1.69-.5-2.33-1.11-.65-.61-1.11-1.41-1.38-2.4-.27-1-.32-2.12-.14-3.37.19-1.29.58-2.41,1.2-3.37Z"/>
    <path class="cls-1" d="M247.11,195.97l4.04-10.9c-1.11-.31-2.09-.25-2.95.19-.86.44-1.46,1.14-1.82,2.11-.52,1.4-.29,2.62.7,3.66l-1.51,4.06c-1.28-.96-2.15-2.23-2.62-3.79s-.38-3.23.28-5.01c.53-1.44,1.33-2.61,2.39-3.51,1.06-.9,2.29-1.46,3.69-1.66,1.4-.2,2.87-.02,4.39.54,1.54.57,2.78,1.39,3.71,2.45s1.5,2.27,1.71,3.64.04,2.78-.5,4.25c-.53,1.42-1.3,2.57-2.33,3.47-1.03.89-2.21,1.44-3.57,1.65s-2.75.04-4.21-.5c-.54-.2-1.01-.42-1.41-.65ZM251.04,193.11c.98.34,1.88.28,2.72-.19s1.44-1.19,1.8-2.18c.35-.93.35-1.82.03-2.67-.33-.85-.97-1.53-1.92-2.04l-2.62,7.08Z"/>
    <path class="cls-1" d="M234.07,218.12l6.33-9.75c-1.02-.54-1.99-.7-2.92-.46-.93.24-1.68.79-2.24,1.66-.81,1.25-.85,2.49-.12,3.72l-2.36,3.64c-1.03-1.22-1.61-2.64-1.73-4.27s.34-3.24,1.37-4.83c.83-1.28,1.87-2.25,3.1-2.9,1.23-.65,2.55-.92,3.97-.81,1.41.11,2.8.6,4.17,1.49,1.38.9,2.41,1.96,3.09,3.2.68,1.24.97,2.55.88,3.92s-.57,2.72-1.42,4.04c-.82,1.27-1.83,2.23-3.03,2.88-1.2.65-2.48.93-3.84.83-1.36-.1-2.69-.57-4-1.41-.48-.31-.89-.63-1.24-.94ZM238.53,216.19c.88.55,1.77.68,2.69.41.92-.27,1.66-.85,2.23-1.73.54-.83.75-1.7.61-2.6-.14-.9-.61-1.7-1.43-2.41l-4.11,6.33Z"/>
    <path class="cls-1" d="M214.55,245.81l2.15-1.76-7.99-9.75,3.15-2.58,7.99,9.75,1.4-1.15,2.09,2.55-1.4,1.15.51.62c1.24,1.51,1.72,2.97,1.44,4.39-.28,1.41-1.3,2.81-3.07,4.18l-2.15-2.62c.77-.6,1.19-1.16,1.27-1.67.08-.51-.17-1.11-.74-1.81l-.42-.51-2.15,1.76-2.09-2.55Z"/>
    <path class="cls-1" d="M193.41,262.61l-7.56-13.99,3.56-1.92.96,1.77c.13-.85.46-1.65,1.01-2.39.55-.74,1.25-1.34,2.11-1.81,1.09-.59,2.19-.88,3.28-.88,1.09,0,2.12.33,3.09.97.97.64,1.79,1.58,2.46,2.83l4.44,8.21-3.54,1.91-4.16-7.7c-.6-1.11-1.34-1.82-2.22-2.11-.88-.3-1.8-.19-2.76.33-.98.53-1.58,1.24-1.81,2.14-.23.9-.05,1.9.55,3.01l4.17,7.7-3.56,1.92Z"/>
    <path class="cls-1" d="M178.56,273.79l-6.52-20.21,3.82-1.23,6.52,20.21-3.83,1.23Z"/>
    <path class="cls-1" d="M161.24,277.81l-3.72-20.91,3.96-.7,3.72,20.91-3.96.7Z"/>
    <path class="cls-1" d="M125.04,272.8c-.96.36-2.03.47-3.18.32-1.35-.18-2.52-.67-3.53-1.48-1-.81-1.74-1.87-2.21-3.17s-.6-2.77-.39-4.38c.21-1.61.72-3,1.52-4.16.8-1.16,1.79-2.01,2.97-2.55,1.18-.54,2.45-.72,3.79-.54,1.16.15,2.15.53,2.96,1.12.82.59,1.46,1.28,1.91,2.08l1.29-9.76,3.98.53-3.08,23.28-3.98-.53.3-2.28c-.61.65-1.39,1.16-2.36,1.53ZM120.06,267.17c.3.74.74,1.34,1.33,1.78.59.44,1.25.72,1.99.81.72.1,1.42,0,2.11-.29.68-.29,1.27-.75,1.75-1.4.48-.65.79-1.45.91-2.4.12-.95.04-1.8-.26-2.55-.3-.75-.74-1.36-1.32-1.81-.59-.45-1.24-.73-1.96-.82-.74-.1-1.45,0-2.14.3-.69.29-1.27.77-1.75,1.42-.48.65-.79,1.46-.91,2.43-.12.95-.04,1.79.26,2.54Z"/>
    <path class="cls-1" d="M96.86,266.06c-.94.18-1.92.1-2.93-.25l1.38-3.99,1,.35c1.19.41,2.19.44,2.99.09.8-.35,1.44-1.22,1.92-2.62l2.59-7.49,3.8,1.31-5.2,15.03-3.8-1.31.81-2.33c-.76.63-1.62,1.03-2.56,1.21Z"/>
    <path class="cls-1" d="M87.74,246.03c.71,1.21,1.06,2.52,1.03,3.95-.02,1.43-.45,2.84-1.27,4.25-.82,1.4-1.86,2.46-3.1,3.17s-2.58,1.05-4,1c-1.42-.04-2.79-.45-4.11-1.22-1.32-.77-2.35-1.77-3.08-2.98-.73-1.21-1.09-2.54-1.08-3.98,0-1.44.42-2.86,1.25-4.26.82-1.4,1.86-2.46,3.13-3.16,1.26-.7,2.61-1.03,4.03-.98,1.43.05,2.81.46,4.14,1.24,1.32.77,2.34,1.76,3.05,2.97ZM80.88,245.51c-.73-.02-1.44.18-2.13.6-.69.42-1.29,1.06-1.8,1.94-.76,1.3-1.01,2.51-.73,3.61.27,1.1.91,1.94,1.9,2.52.99.58,2.03.71,3.11.4,1.08-.31,2-1.12,2.76-2.42.76-1.31,1.02-2.5.78-3.58s-.86-1.92-1.85-2.5c-.63-.37-1.31-.56-2.04-.58Z"/>
    <path class="cls-1" d="M57.63,246.89c.06.65-.12,1.22-.56,1.73-.44.51-.98.78-1.63.82-.65.04-1.25-.18-1.8-.66-.54-.46-.83-1.01-.89-1.65-.06-.64.13-1.21.57-1.72.44-.51.98-.78,1.62-.83.64-.04,1.23.17,1.77.63.55.47.86,1.03.92,1.68ZM68.49,228.43c1.15-1.34,2.3-2.01,3.47-2.04s2.37.5,3.6,1.56l1.35,1.16-2.22,2.59-.87-.75c-.46-.4-.87-.59-1.21-.57-.34.02-.69.23-1.04.64l-12.07,14.07-3.05-2.62,12.05-14.05Z"/>
    <path class="cls-1" d="M44.52,216l7.36,9c.83-.8,1.27-1.68,1.33-2.64.06-.96-.24-1.84-.9-2.64-.94-1.16-2.11-1.57-3.51-1.25l-2.74-3.35c1.48-.61,3.01-.73,4.59-.35,1.59.38,2.98,1.31,4.18,2.77.97,1.19,1.58,2.46,1.82,3.83.24,1.37.1,2.71-.43,4.03-.53,1.31-1.43,2.49-2.69,3.51-1.27,1.04-2.6,1.7-3.99,1.97-1.39.27-2.72.15-4-.36s-2.42-1.37-3.41-2.58c-.96-1.17-1.56-2.42-1.82-3.76-.25-1.34-.13-2.64.38-3.91.51-1.27,1.36-2.39,2.56-3.37.44-.36.87-.66,1.27-.89ZM45,220.84c-.79.67-1.19,1.48-1.21,2.44-.02.96.3,1.84.97,2.66.63.77,1.39,1.23,2.29,1.37.9.14,1.81-.06,2.73-.62l-4.78-5.84Z"/>
    <path class="cls-1" d="M33.68,209.19c-1.4-.04-2.68-.44-3.82-1.19-1.14-.75-2.06-1.81-2.75-3.18-.89-1.76-1.19-3.44-.89-5.03.3-1.6,1.14-2.99,2.53-4.19l1.96,3.87c-.51.52-.82,1.11-.92,1.77-.1.66.03,1.35.39,2.07.52,1.02,1.3,1.65,2.34,1.87,1.05.22,2.25-.01,3.62-.7,1.35-.68,2.24-1.51,2.68-2.48.44-.97.4-1.97-.12-3-.73-1.45-1.86-2.07-3.38-1.86l-1.96-3.87c1.74-.38,3.35-.23,4.84.48,1.49.7,2.68,1.93,3.56,3.67.69,1.37,1,2.73.93,4.1-.07,1.37-.51,2.62-1.3,3.78-.8,1.16-1.93,2.1-3.4,2.85-1.47.74-2.9,1.09-4.31,1.05Z"/>
    <path class="cls-1" d="M21.6,180.71l7.4-2.11c.52-.15.85-.38,1.01-.69.16-.31.15-.76-.01-1.35l-.51-1.79,3.26-.93.69,2.43c.93,3.26-.19,5.34-3.35,6.24l-7.37,2.1.52,1.82-3.17.91-.52-1.82-3.78,1.08-1.11-3.89,3.78-1.08-.98-3.42,3.17-.91.98,3.42Z"/>
  </g>
  <path class="cls-1" d="M255.27,139.09c-.63-.61-.95-1.36-.95-2.27s.32-1.66.95-2.27c.63-.61,1.44-.91,2.43-.91s1.75.3,2.37.91c.62.61.93,1.37.93,2.27s-.31,1.66-.93,2.27c-.62.61-1.41.91-2.37.91s-1.79-.3-2.43-.91Z"/>
  <path class="cls-1" d="M20.76,158.72c-.63-.61-.95-1.36-.95-2.27s.32-1.66.95-2.27c.63-.61,1.44-.91,2.43-.91s1.75.3,2.37.91c.62.61.93,1.37.93,2.27s-.31,1.66-.93,2.27c-.62.61-1.41.91-2.37.91s-1.79-.3-2.43-.91Z"/>
</svg>