<?xml version="1.0" encoding="UTF-8"?>
<svg id="Capa_1" data-name="Capa 1" xmlns="http://www.w3.org/2000/svg" version="1.1" viewBox="0 0 200 200">
  <defs>
    <style>
      .cls-1 {
        fill: #c3006b;
        stroke-width: 0px;
      }
    </style>
  </defs>
  <path class="cls-1" d="M124.03,138.41h-48.04c0-1.52-.04-3,.04-4.48.01-.23.54-.59.86-.63,3.07-.42,6.14-.8,9.22-1.17,5.35-.65,9.08-4.71,9.09-10.09.03-15.97.01-31.94,0-47.91,0-2.13-.84-2.96-3-2.97-2.91-.02-5.82-.03-8.74,0-5.9.07-10.27,3.42-11.93,9.1-.64,2.21-1.31,4.41-1.89,6.63-.2.76-.49,1.11-1.32,1.08-1.4-.06-2.81-.02-4.3-.02v-26.36c1.84,0,3.71-.1,5.56.06.65.05,1.21.81,1.86,1.13.88.44,1.82,1.09,2.74,1.09,17.24.07,34.48.06,51.72,0,.85,0,1.9-.39,2.49-.97,1.07-1.05,2.19-1.5,3.65-1.42,1.3.07,2.61.01,3.98.01v26.44c-1.6,0-3.14.06-4.66-.04-.33-.02-.79-.56-.91-.95-.7-2.24-1.31-4.5-1.97-6.75-1.64-5.59-6.01-8.95-11.83-9.04-2.96-.04-5.92-.02-8.88,0-2.14.01-2.95.85-2.95,3.02,0,15.92-.02,31.85,0,47.77,0,5.52,3.82,9.62,9.28,10.2,3.03.32,6.06.73,9.08,1.16.32.05.8.52.82.81.09,1.4.04,2.8.04,4.29Z"/>
  <path class="cls-1" d="M56.76,44.59v-4.62h86.46v4.62H56.76Z"/>
  <path class="cls-1" d="M44.59,143.23h-4.63V56.77h4.63v86.46Z"/>
  <path class="cls-1" d="M155.4,56.77h4.63v86.46h-4.63V56.77Z"/>
  <path class="cls-1" d="M56.77,160v-4.62h86.45v4.62H56.77Z"/>
  <path class="cls-1" d="M51.87,42.32c0,2.25.02,4.5,0,6.75-.02,1.94-.82,2.78-2.72,2.79-4.6.02-9.19.02-13.79,0-1.8,0-2.7-.9-2.71-2.68-.02-4.6-.02-9.19,0-13.79,0-1.84.94-2.74,2.81-2.74,4.55-.02,9.1-.02,13.65,0,1.87,0,2.73.89,2.75,2.77.03,2.3,0,4.6,0,6.89Z"/>
  <path class="cls-1" d="M157.68,32.64c2.3,0,4.6-.02,6.89,0,1.86.02,2.77.91,2.78,2.78.02,4.55.02,9.1,0,13.65,0,1.89-.87,2.78-2.74,2.79-4.6.02-9.19.02-13.79,0-1.83-.01-2.67-.85-2.68-2.68-.03-4.6-.02-9.19,0-13.79,0-1.87.89-2.72,2.78-2.74,2.25-.02,4.5,0,6.75,0Z"/>
  <path class="cls-1" d="M51.87,157.78c0,2.3.02,4.6,0,6.89-.03,1.79-.91,2.67-2.71,2.68-4.6.02-9.19.02-13.79,0-1.78,0-2.7-.93-2.71-2.7-.03-4.6-.02-9.19,0-13.79,0-1.81.88-2.71,2.66-2.72,4.64-.03,9.29-.03,13.93,0,1.75.01,2.59.86,2.62,2.6.04,2.34,0,4.69,0,7.04Z"/>
  <path class="cls-1" d="M148.13,157.65c0-2.3-.02-4.6,0-6.89.03-1.75.86-2.6,2.6-2.61,4.64-.03,9.29-.03,13.93,0,1.79,0,2.67.9,2.68,2.7.02,4.6.02,9.19,0,13.79,0,1.78-.93,2.7-2.7,2.71-4.6.03-9.19.02-13.79,0-1.85,0-2.7-.9-2.72-2.8-.02-2.3,0-4.6,0-6.89Z"/>
</svg>