<?xml version="1.0" encoding="UTF-8"?>
<svg id="Capa_1" data-name="Capa 1" xmlns="http://www.w3.org/2000/svg" version="1.1" viewBox="0 0 200 200">
  <defs>
    <style>
      .cls-1 {
        fill: #c3006b;
        stroke-width: 0px;
      }
    </style>
  </defs>
  <path class="cls-1" d="M42.99,110.99c-2.58,0-5.06.01-7.53,0-1.95-.01-2.68-.72-2.69-2.68-.02-5.29-.01-10.58,0-15.88,0-2.02.71-2.71,2.78-2.73,2.05-.02,4.1-.04,6.15.01.84.02,1.16-.29,1.32-1.09,1.55-7.65,4.44-14.74,8.86-21.39-1.68-1.67-3.38-3.33-5.06-5.01-1.59-1.59-1.59-2.52,0-4.09,3.67-3.61,7.34-7.22,11.02-10.82,1.56-1.53,2.53-1.5,4.11.08,1.65,1.65,3.28,3.31,4.68,4.72,4.2-2.07,8.11-4.26,12.23-5.94,3.01-1.24,6.28-1.87,9.46-2.66.83-.21,1.08-.48,1.07-1.3-.05-2.34-.03-4.67-.01-7.01.01-1.79.74-2.56,2.5-2.57,5.43-.02,10.87-.02,16.3,0,1.7,0,2.43.74,2.47,2.45.05,2.14.03,4.29,0,6.44,0,.7.1,1.16.91,1.32,7.71,1.51,14.82,4.5,21.54,8.89,1.66-1.67,3.33-3.36,5.01-5.04,1.59-1.59,2.52-1.6,4.1-.05,3.65,3.57,7.29,7.14,10.93,10.71,1.71,1.68,1.71,2.57-.03,4.3-1.69,1.68-3.39,3.34-4.93,4.86,1.91,3.74,3.99,7.23,5.5,10.94,1.52,3.72,2.47,7.67,3.75,11.77,2.11,0,4.52,0,6.94,0,2.25,0,2.87.62,2.87,2.89,0,5.2,0,10.39,0,15.59,0,2.18-.62,2.79-2.82,2.81-2.33.02-4.66,0-7.13,0-1.6,8.08-4.56,15.54-9.13,22.45,1.75,1.74,3.45,3.4,5.13,5.09,1.5,1.51,1.5,2.48-.02,4.01-3.7,3.72-7.41,7.43-11.12,11.12-1.46,1.45-2.41,1.4-3.9,0-1.76-1.67-3.58-3.28-5.54-5.06-.77.48-1.92,1.21-3.09,1.92-5.48,3.3-11.39,5.5-17.68,6.64-1.05.19-1.32.58-1.29,1.57.07,2.19.03,4.39.03,6.58,0,1.88-.59,2.51-2.45,2.52-5.34.01-10.68.01-16.02,0-1.88,0-2.58-.71-2.59-2.59-.02-2.33,0-4.67,0-7.14-8.06-1.6-15.54-4.54-22.43-9.13-1.68,1.68-3.32,3.34-4.97,4.98-1.66,1.65-2.59,1.67-4.21.06-3.68-3.67-7.35-7.34-11.02-11.02-1.53-1.53-1.52-2.46.01-3.99,1.68-1.68,3.38-3.34,5.13-5.06-4.73-6.84-7.77-14.22-9.13-22.46ZM140.52,50.91c-1.85,1.87-3.44,3.51-5.06,5.11-1.34,1.33-2.12,1.41-3.62.33-6.81-4.91-14.39-7.93-22.63-9.39-2.24-.39-2.72-.97-2.72-3.22,0-2.18,0-4.35,0-6.55h-12.48c0,2.4,0,4.73,0,7.05,0,1.85-.65,2.64-2.43,2.92-8.38,1.32-16.02,4.43-22.9,9.4-1.5,1.09-2.32,1-3.62-.3-1.64-1.64-3.27-3.29-5.06-5.09-2.89,3.11-5.63,6.08-8.46,9.13,1.37,1.36,2.99,2.96,4.6,4.59,1.25,1.27,1.35,2.27.34,3.67-4.89,6.71-7.84,14.22-9.32,22.35-.48,2.65-.91,2.98-3.58,2.98-2.08,0-4.15,0-6.23,0v12.29c.17.08.25.16.34.16,2.24.02,4.48.01,6.72.04,1.59.02,2.38.67,2.63,2.24,1.35,8.53,4.49,16.3,9.59,23.29.94,1.28.82,2.16-.3,3.29-1.67,1.69-3.36,3.36-4.88,4.88,3,3,5.92,5.92,8.94,8.94,1.5-1.54,3.08-3.19,4.7-4.8,1.33-1.33,2.09-1.39,3.62-.29,6.85,4.93,14.48,7.97,22.77,9.4,2.01.35,2.54,1,2.55,3.08,0,2.13,0,4.26,0,6.43h12.48c0-2.35,0-4.59,0-6.83,0-1.85.64-2.63,2.43-2.91,8.38-1.33,16.02-4.43,22.9-9.41,1.5-1.08,2.29-.94,3.62.3,1.73,1.62,3.53,3.17,5.24,4.69,2.61-2.61,5.51-5.51,8.52-8.52-1.61-1.59-3.28-3.21-4.92-4.87-1.27-1.28-1.36-2.07-.32-3.51,4.97-6.89,8.02-14.56,9.46-22.9.33-1.94,1-2.5,2.97-2.5,2.23,0,4.45,0,6.73,0v-12.48c-2.39,0-4.67,0-6.95,0-2.01,0-2.69-.62-3.02-2.64-1.32-8.12-4.3-15.57-9.08-22.29-1.47-2.07-1.43-2.58.37-4.38,1.6-1.6,3.2-3.2,4.54-4.54-2.87-3.09-5.59-6.03-8.47-9.13Z"/>
  <path class="cls-1" d="M100.27,55.28c24.57.03,44.76,20.21,44.81,44.8.05,24.57-20.29,44.92-44.87,44.89-24.62-.03-44.93-20.4-44.81-44.95.12-24.62,20.32-44.77,44.87-44.74ZM140.61,100.14c.01-22.24-18.14-40.4-40.37-40.39-22.18,0-40.29,18.09-40.35,40.27-.06,22.22,18.07,40.42,40.3,40.47,22.21.04,40.41-18.12,40.42-40.35Z"/>
  <path class="cls-1" d="M102.49,77.85c0,4.15.03,8.29-.02,12.44,0,.9.26,1.29,1.12,1.65,3.98,1.63,6.2,5.79,5.36,9.83-.88,4.26-4.47,7.23-8.72,7.22-4.24,0-7.83-3-8.7-7.26-.82-4.03,1.42-8.18,5.41-9.8.89-.36,1.09-.8,1.08-1.67-.03-8.29-.01-16.58-.02-24.88,0-1.24.27-2.31,1.63-2.68,1.59-.44,2.83.59,2.85,2.43.04,4.24.01,8.48.01,12.72ZM104.66,100.06c-.03-2.47-1.97-4.31-4.51-4.29-2.42.02-4.32,1.92-4.32,4.34,0,2.43,2.01,4.44,4.44,4.43,2.44-.02,4.43-2.04,4.39-4.48Z"/>
  <path class="cls-1" d="M67.29,97.9c.76,0,1.52-.06,2.28.01,1.26.12,1.98.86,2.04,2.14.07,1.24-.74,2.2-2.05,2.27-1.61.08-3.23.09-4.83-.02-1.25-.08-1.96-.88-1.96-2.19,0-1.3.7-2.05,1.96-2.19.84-.09,1.71-.02,2.56-.02h0Z"/>
  <path class="cls-1" d="M133.31,102.35c-.76,0-1.52.05-2.28-.01-1.35-.1-2.14-.93-2.16-2.18-.02-1.25.75-2.17,2.08-2.24,1.56-.08,3.13-.08,4.69,0,1.35.07,2.09.95,2.08,2.23-.01,1.27-.77,2.08-2.13,2.19-.75.06-1.52.01-2.28.01Z"/>
  <path class="cls-1" d="M102.47,133.15c0,.81.06,1.62-.01,2.42-.13,1.34-.99,2.08-2.28,2.03-1.31-.04-2.06-.78-2.13-2.03-.09-1.61-.09-3.23.01-4.84.08-1.27.91-1.97,2.19-1.97,1.28,0,2.05.71,2.2,1.97.09.8.02,1.61.02,2.42,0,0,0,0,0,0Z"/>
  <path class="cls-1" d="M120.37,130.91c-.62.7-1.07,1.66-1.7,1.81-.78.18-2.06-.04-2.52-.59-1.11-1.33-2.02-2.89-2.68-4.49-.25-.61.19-1.83.73-2.33.48-.44,1.79-.65,2.28-.31,1.97,1.38,2.62,3.71,3.89,5.91Z"/>
  <path class="cls-1" d="M84.53,75.48c-.36-.28-1.19-.7-1.69-1.36-.8-1.05-1.41-2.25-2.04-3.42-.66-1.23-.36-2.42.71-3.12,1.07-.7,2.31-.47,3.1.71.84,1.26,1.63,2.57,2.32,3.92.79,1.54-.28,3.3-2.4,3.27Z"/>
  <path class="cls-1" d="M69.35,80.39c2.41.88,4.4,1.82,5.83,3.46.42.48.26,1.87-.13,2.55-.51.88-1.64,1.16-2.65.63-1.38-.73-2.74-1.51-4.03-2.38-.91-.61-1.29-1.65-.76-2.63.37-.68,1.18-1.13,1.75-1.64Z"/>
  <path class="cls-1" d="M127.14,112.49c2.05,1.37,3.92,2.46,5.55,3.83.39.33.26,1.78-.12,2.43-.57.97-1.75,1.17-2.78.65-1.35-.68-2.65-1.48-3.91-2.31-.92-.61-1.34-1.64-.83-2.61.38-.72,1.23-1.2,2.09-2Z"/>
  <path class="cls-1" d="M69.82,120.58c-.58-.61-1.28-1.14-1.69-1.84-.51-.88-.24-1.83.58-2.41,1.32-.93,2.69-1.81,4.12-2.56,1.05-.55,2.08-.28,2.74.76.59.93.69,2.03-.22,2.73-1.43,1.09-3.02,1.98-4.55,2.93-.19.12-.46.11-.69.16-.1.08-.19.16-.29.24Z"/>
  <path class="cls-1" d="M130.84,79.53c.59.56,1.3,1.02,1.71,1.68.54.86.31,1.84-.5,2.43-1.39,1-2.81,2-4.35,2.71-.58.27-1.88-.03-2.24-.52-.47-.64-.78-2.07-.4-2.56,1.39-1.77,3.45-2.71,5.78-3.74Z"/>
  <path class="cls-1" d="M120.73,69.42c-.21.71-.24,1.06-.41,1.33-.81,1.34-1.56,2.73-2.5,3.98-.65.87-1.64,1.36-2.76.7-1.13-.67-1.53-1.92-.89-3.09.73-1.33,1.55-2.62,2.41-3.87.6-.87,1.56-1.24,2.5-.68.69.41,1.18,1.15,1.66,1.64Z"/>
  <path class="cls-1" d="M82.56,132.49c-1.87,0-2.92-1.75-2.15-3.24.71-1.39,1.57-2.72,2.47-4,.7-1,1.74-1.09,2.79-.55,1.04.53,1.53,1.53,1.04,2.5-.82,1.64-1.89,3.17-2.96,4.67-.28.4-.97.51-1.19.61Z"/>
</svg>