<?xml version="1.0" encoding="UTF-8"?>
<svg id="Capa_1" data-name="Capa 1" xmlns="http://www.w3.org/2000/svg" version="1.1" viewBox="0 0 200 200">
  <defs>
    <style>
      .cls-1 {
        fill: #c3006b;
        stroke-width: 0px;
      }
    </style>
  </defs>
  <path class="cls-1" d="M76.75,167.37c-14.05,0-28.09,0-42.14,0-2.72,0-4.64-1.28-5-3.67-.17-1.1.12-2.42.61-3.45,2.07-4.37,4.31-8.66,6.42-13.01.38-.79.61-1.74.62-2.62.04-13.8.03-27.6.03-41.41,0-3.72,1.78-5.48,5.54-5.48,22.62,0,45.24,0,67.86,0,3.82,0,5.54,1.75,5.54,5.62,0,13.75-.01,27.51.03,41.26,0,.88.23,1.83.62,2.62,2.09,4.31,4.27,8.57,6.39,12.86,1.96,3.96-.1,7.26-4.51,7.27-14,0-28,0-42,0ZM111.58,144.16v-41.8H41.89v41.8h69.69ZM119.58,162.78c-2.21-4.43-4.34-8.6-6.38-12.81-.45-.93-.97-1.23-1.99-1.23-23,.03-46,.03-68.99,0-.95,0-1.47.26-1.9,1.14-1.9,3.92-3.87,7.79-5.81,11.69-.18.36-.3.74-.49,1.21h85.55Z"/>
  <path class="cls-1" d="M123.32,113.9h-4.54v-4.52h4.54v-1.88c0-13.03,0-26.06,0-39.09,0-5.13,2.76-7.88,7.91-7.88,11,0,21.99,0,32.99,0,5.03,0,7.81,2.79,7.81,7.84,0,20.34,0,40.68,0,61.03,0,4.93-2.82,7.74-7.76,7.74-11.09,0-22.19,0-33.28,0-4.82,0-7.67-2.86-7.67-7.68,0-4.6,0-9.2,0-13.8,0-.52,0-1.05,0-1.75ZM167.5,120.91v-1.62c0-16.99,0-33.98,0-50.97,0-2.55-.71-3.27-3.28-3.27-11.04,0-22.08,0-33.12,0-2.56,0-3.26.71-3.26,3.28,0,16.99,0,33.98,0,50.97v1.6h39.66ZM127.85,125.58c0,1.45,0,2.75,0,4.05.01,2.17.81,2.97,2.98,2.97,4.45,0,8.9,0,13.35,0,6.82,0,13.64,0,20.46,0,1.61,0,2.69-.66,2.79-1.94.13-1.66.03-3.35.03-5.08h-39.62Z"/>
  <path class="cls-1" d="M32.59,109.3c.74.04,1.41.08,2.14.13v4.23c-3.73,1.08-6.77-1.09-6.77-4.93,0-23.63,0-47.27,0-70.9,0-3.33,1.89-5.19,5.25-5.19,37.54,0,75.08,0,112.63,0,3.38,0,5.25,1.84,5.25,5.18.01,6.68,0,13.36,0,20.16h-4.46v-20.68H32.59v72.01Z"/>
  <path class="cls-1" d="M87.3,51.28c10.72.08,19.69,8.99,19.54,19.67-.15,11.1-8.73,19.64-19.72,19.58-11.14-.06-19.53-8.83-19.54-19.76-.01-10.73,9.06-19.57,19.72-19.49ZM87.15,55.72c-8.44,0-15.17,6.77-15.16,15.23,0,8.45,6.75,15.19,15.2,15.2,8.52,0,15.25-6.75,15.24-15.31-.01-8.42-6.79-15.13-15.28-15.12Z"/>
  <path class="cls-1" d="M41.82,71.97h-4.55c0-.51,0-1.02,0-1.53,0-8.42,0-16.84,0-25.26,0-2.5.72-3.24,3.16-3.24,10.07,0,20.13,0,30.2,0h1.28v4.49h-30.09v25.55Z"/>
  <path class="cls-1" d="M137.29,55.68v-9.18h-9.24v-4.45c.32-.04.69-.11,1.05-.11,3.29,0,6.57-.02,9.86,0,1.98.01,2.83.85,2.84,2.82.02,3.61,0,7.22,0,10.92h-4.51Z"/>
  <path class="cls-1" d="M72.15,136.72c-.53,1.85-1.76,2.19-3.32,2.15-2.56-.07-5.13,0-7.7-.02-1.89-.01-2.66-.74-2.66-2.62-.02-5.9-.02-11.81,0-17.71,0-1.82.68-2.6,2.51-2.65,2.81-.08,5.62-.11,8.42.03.8.04,1.82.54,2.3,1.17,1.16,1.53,3.29,1.51,4.22-.26.49-.94.82-1.96,1.22-2.94.42-1.03.8-2.07,1.25-3.09,1.04-2.35,3.36-3.58,5.64-3.01,2.56.64,4.04,2.71,3.71,5.42-.16,1.33-.58,2.63-.86,3.95-.06.27,0,.56,0,.94.94.06,1.85.08,2.74.19,3.76.47,5.87,3.15,5.31,6.87-.49,3.29-1.09,6.57-1.69,9.84-.45,2.46-2.16,3.86-4.68,3.87-3.78.02-7.55-.05-11.33.03-1.54.03-2.86-.25-3.96-1.36-.26-.27-.62-.44-1.12-.79ZM82.43,134.43c1.79,0,3.58-.04,5.37.02.89.03,1.33-.28,1.47-1.16.47-2.95,1-5.9,1.45-8.85.18-1.17-.33-1.87-1.59-1.87-1.55,0-3.1,0-4.65,0-2.21-.02-3.08-1.14-2.56-3.27.49-2.01,1.04-4.02,1.49-6.04.08-.34-.17-.75-.26-1.13-.31.24-.77.41-.9.72-.66,1.5-1.27,3.03-1.84,4.57-1.24,3.37-3.57,5.2-7.22,5.15-.88-.01-1.21.3-1.19,1.18.04,1.98-.08,3.97.06,5.95.05.71.5,1.49.99,2.04,1.98,2.26,4.49,3.18,7.49,2.72.61-.09,1.26-.01,1.89-.01ZM62.72,127.27c0,1.16,0,2.32,0,3.49,0,3.8,0,3.76,3.76,3.7,1.06-.02,1.32-.43,1.31-1.39-.03-3.05-.01-6.1-.01-9.15,0-3.8,0-3.76-3.78-3.7-1.07.02-1.31.44-1.29,1.39.05,1.89.01,3.78.01,5.66Z"/>
  <path class="cls-1" d="M163.06,88.26c.07,2.58-.86,4.75-2.63,6.55-3.55,3.63-7.13,7.24-10.71,10.84-1.57,1.58-2.51,1.58-4.04.04-3.55-3.57-7.08-7.16-10.61-10.74-2.74-2.78-3.5-6.1-2.24-9.74,1.26-3.65,4.06-5.58,7.84-5.97,2.13-.22,4.15.42,5.83,1.75.87.68,1.39.72,2.31.04,2.88-2.14,6.07-2.46,9.28-.84,3.26,1.65,4.88,4.41,4.97,8.06ZM141.83,83.55c-2.46.18-3.94.92-4.77,2.68-.87,1.85-.7,3.68.66,5.14,3.04,3.25,6.21,6.38,9.37,9.52.21.2.96.21,1.16.02,3.16-3.14,6.35-6.25,9.37-9.52,1.82-1.96,1.5-4.88-.45-6.64-1.83-1.66-4.47-1.55-6.42.28-.49.46-.94.98-1.45,1.43-1.07.96-2.17.97-3.24.03-.54-.48-.97-1.13-1.56-1.51-.98-.63-2.06-1.11-2.68-1.42Z"/>
  <path class="cls-1" d="M96.21,73.37c.02,4.38-4.09,7.92-9,7.92-4.9,0-8.98-3.5-9.02-7.92,1.19,0,2.39-.04,3.58.03.26.02.6.38.73.67.95,1.99,2.59,2.78,4.69,2.78,2.1,0,3.74-.78,4.71-2.76.15-.31.56-.66.87-.68,1.14-.08,2.29-.03,3.44-.03Z"/>
  <path class="cls-1" d="M82.42,66.33c-.03,1.07-1.13,2.15-2.2,2.15-1.12,0-2.26-1.21-2.18-2.31.08-1.08,1.22-2.13,2.27-2.07,1.08.05,2.14,1.17,2.11,2.23Z"/>
  <path class="cls-1" d="M96.37,66.32c-.02,1.07-1.12,2.16-2.19,2.16-1.12,0-2.26-1.2-2.19-2.3.07-1.08,1.2-2.13,2.26-2.08,1.08.05,2.14,1.16,2.12,2.22Z"/>
</svg>