<?xml version="1.0" encoding="UTF-8"?>
<svg id="Capa_1" data-name="Capa 1" xmlns="http://www.w3.org/2000/svg" version="1.1" viewBox="0 0 200 200">
  <defs>
    <style>
      .cls-1 {
        fill: #c3006b;
        stroke-width: 0px;
      }
    </style>
  </defs>
  <path class="cls-1" d="M156.36,98.01c-.91-28.86-23.53-50.55-47.48-53.59,0,1.25.02,2.48,0,3.72-.04,1.53-.77,2.28-2.32,2.28-4.35.02-8.69.02-13.04,0-1.64,0-2.36-.73-2.4-2.35-.02-1.19,0-2.38,0-3.58-23.59,2.57-46.89,24.95-47.43,53.51,1.42,0,2.84-.01,4.26,0,1.73.02,2.46.72,2.47,2.42.02,4.3.02,8.6,0,12.9,0,1.71-.73,2.43-2.45,2.44-4.3.02-8.6.02-12.89,0-1.7,0-2.4-.74-2.4-2.48-.01-4.25-.01-8.5,0-12.75,0-1.81.71-2.5,2.51-2.52,1.34-.02,2.67-.02,4.01-.03.09,0,.17-.07.23-.09,2.09-25.57,14.78-43.63,38.21-54.26h-27.31c-2.77,5.58-6.28,7.67-10.99,6.5-4.05-1.01-6.83-4.78-6.66-9.05.17-4.14,3.31-7.61,7.55-8.33,4.33-.73,8,1.72,10.04,6.74h40.86c0-1.43,0-2.84,0-4.25.02-1.89.69-2.57,2.6-2.58,4.15-.01,8.31,0,12.47,0,2.01,0,2.68.66,2.69,2.63,0,1.34,0,2.67,0,4.13h40.82c2.71-5.54,6.25-7.64,10.97-6.47,4,.99,6.78,4.71,6.67,8.91-.12,4.22-3.26,7.74-7.56,8.47-4.31.74-7.99-1.72-10.04-6.74h-27.47c23.51,10.62,36.19,28.69,38.33,54.42,1.35,0,2.82-.01,4.28,0,1.72.02,2.45.72,2.46,2.43.02,4.3.02,8.6,0,12.9,0,1.7-.74,2.42-2.46,2.42-4.3.02-8.6.02-12.89,0-1.64,0-2.38-.73-2.39-2.35-.02-4.35-.02-8.69,0-13.04,0-1.62.74-2.33,2.38-2.36,1.42-.02,2.85,0,4.39,0ZM104.77,46.36v-9.57h-9.57v9.57h9.57ZM36.72,111.7h9.61v-9.59h-9.61v9.59ZM163.27,102.13h-9.62v9.56h9.62v-9.56ZM153.59,41.54c0,2.71,2.24,4.91,4.94,4.87,2.64-.04,4.8-2.22,4.8-4.87,0-2.7-2.23-4.9-4.94-4.87-2.64.03-4.8,2.22-4.79,4.86ZM41.61,36.68c-2.64-.04-4.86,2.09-4.94,4.72-.07,2.7,2.1,4.97,4.8,5.01,2.63.04,4.87-2.1,4.94-4.73.07-2.7-2.1-4.97-4.8-5.01Z"/>
  <path class="cls-1" d="M124.73,140.5c1.28,0,2.3-.12,3.28.02,3.61.5,6.23,3.3,6.63,7.05.59,5.65,1.14,11.3,1.7,16.95.2,2.01-.54,2.85-2.57,2.85-22.49,0-44.98,0-67.46,0-2.12,0-2.85-.81-2.64-2.92.56-5.6,1.12-11.21,1.69-16.81.44-4.3,3.64-7.17,7.99-7.21.57,0,1.14,0,1.89,0-.22-.62-.38-1.1-.57-1.57-3.14-7.83-6.25-15.68-9.44-23.49-.53-1.3-.43-2.29.32-3.46,10.78-16.67,21.52-33.36,32.27-50.04,1.49-2.32,2.89-2.3,4.4.05,10.7,16.6,21.39,33.22,32.12,49.8.84,1.3.96,2.4.37,3.85-3.17,7.72-6.24,15.47-9.34,23.22-.19.48-.36.96-.64,1.7ZM97.95,69.24c-.32.4-.45.54-.55.69-9.31,14.44-18.62,28.87-27.88,43.34-.28.44-.26,1.28-.05,1.8,3.17,8.02,6.41,16.02,9.59,24.04.39.99.85,1.35,1.95,1.35,12.65-.04,25.31-.05,37.96,0,1.18,0,1.62-.41,2.03-1.44,3.13-7.94,6.31-15.86,9.53-23.76.39-.95.3-1.61-.25-2.47-9.1-14.06-18.16-28.14-27.23-42.22-.24-.38-.52-.73-.94-1.31v42.69c4.96,1.93,7.47,5.75,6.69,10.09-.79,4.36-4.37,7.45-8.67,7.49-4.34.04-7.96-2.95-8.82-7.3-.89-4.45,1.52-8.19,6.68-10.31v-42.68ZM132.17,163.3c-.51-5.11-1.02-10.04-1.5-14.98-.25-2.55-1.64-3.88-4.21-3.88-17.66,0-35.31,0-52.97,0-2.55,0-3.93,1.34-4.17,3.91-.23,2.47-.51,4.93-.76,7.4-.25,2.49-.47,4.99-.71,7.54h64.31ZM100.09,115.78c-2.64-.05-4.88,2.07-4.96,4.7-.08,2.71,2.08,4.99,4.77,5.03,2.65.05,4.87-2.06,4.96-4.7.09-2.7-2.07-4.98-4.77-5.03Z"/>
</svg>