<?xml version="1.0" encoding="UTF-8"?>
<svg id="Capa_1" data-name="Capa 1" xmlns="http://www.w3.org/2000/svg" version="1.1" viewBox="0 0 200 200">
  <defs>
    <style>
      .cls-1 {
        fill: #c3006b;
        stroke-width: 0px;
      }
    </style>
  </defs>
  <path class="cls-1" d="M85.74,46.46h28.55c0-2.46-.03-4.87,0-7.28.06-4.62,4.42-7.73,8.64-6.11,2.55.98,4.13,2.93,4.16,5.63.07,8.73.18,17.47-.16,26.19-.28,7.02-3.53,12.86-8.66,17.65-.2.19-.42.37-.73.63.33.35.59.65.88.92,5.71,5.43,8.64,12.09,8.71,19.95.07,7.66.02,15.32.02,22.98,0,2.96-1.35,5.06-4.02,6.34-.43.21-.89.54-1.12.94-5.37,9.45-10.7,18.92-16.04,28.39-.07.12-.08.26-.18.63h1.5c8.92,0,17.84,0,26.76,0,.51,0,1.04-.04,1.54.07.99.22,1.54.91,1.55,1.9.01,1.04-.52,1.79-1.58,2.01-.45.09-.93.08-1.4.08-22.74,0-45.49,0-68.23,0-.19,0-.37,0-.56,0-1.59-.04-2.5-.77-2.51-2.02,0-1.25.9-2.03,2.48-2.03,5.65-.01,11.3,0,16.95,0,3.92,0,7.84,0,12.01,0-.26-.53-.42-.93-.63-1.3-5.15-9.15-10.3-18.3-15.48-27.42-.29-.52-.83-.99-1.36-1.26-2.53-1.28-3.94-3.27-3.95-6.11-.03-7.89-.1-15.79.03-23.68.12-7.54,3.02-13.96,8.43-19.22.3-.29.61-.58.91-.87.03-.03.05-.08.5-.54-.38-.18-.85-.26-1.14-.54-5.63-5.28-8.59-11.81-8.71-19.51-.12-7.84-.06-15.69-.02-23.54.02-3.86,2.79-6.66,6.46-6.65,3.68,0,6.36,2.81,6.39,6.69.02,2.32,0,4.65,0,7.08ZM81.68,52h0c0-4.2.02-8.41-.01-12.61-.01-1.66-1.04-2.72-2.43-2.66-1.34.06-2.23,1.09-2.23,2.7,0,7.94-.1,15.88.04,23.82.11,6.76,2.92,12.37,8.01,16.78,4.5,3.9,9.84,5.55,15.74,5.61,2.85.03,5.55.79,8.01,2.22,6.35,3.7,9.52,9.27,9.54,16.62.02,7.47,0,14.94.01,22.42,0,1.83.9,2.86,2.37,2.85,1.47-.01,2.3-1.03,2.3-2.88,0-7.8.02-15.6-.02-23.4-.02-4.26-1.2-8.22-3.53-11.77-4.58-6.99-11.09-10.56-19.47-10.78-10.57-.28-18.24-8.12-18.32-18.67-.03-3.41,0-6.82,0-10.23ZM113.97,128.84c-1.24.61-2.75,1.3-4.21,2.09-1.09.59-2.07.61-3.17.02-1.89-1.01-3.81-1.97-5.76-2.85-.47-.21-1.19-.21-1.65,0-1.95.88-3.87,1.84-5.76,2.85-1.1.59-2.08.57-3.17-.02-1.46-.8-2.98-1.49-4.2-2.09-1.26,1.62-2.4,3.09-3.69,4.76,2.03,3.61,4.23,7.55,6.49,11.46.17.3.77.49,1.17.49,6.67.03,13.34.03,20.02,0,.39,0,.98-.21,1.15-.52,2.26-3.9,4.46-7.84,6.48-11.42-1.3-1.69-2.44-3.16-3.69-4.78ZM109.33,78.36c1.31.63,2.52,1.05,3.53,1.75,1.02.7,1.63.38,2.4-.32,4.96-4.56,7.65-10.17,7.74-16.93.07-5.79.02-11.58.02-17.37,0-2.1.03-4.2-.01-6.3-.03-1.46-1.02-2.47-2.32-2.46-1.24,0-2.19.95-2.33,2.34-.04.42-.02.84-.02,1.26,0,7.1.01,14.2-.01,21.3,0,1.3-.04,2.63-.26,3.9-.98,5.49-3.89,9.71-8.73,12.84ZM85.85,85.75c-5.4,4.42-8.6,10.06-8.79,17.09-.21,8.07-.06,16.16-.07,24.23,0,.14,0,.28.01.42.11,1.32,1,2.2,2.24,2.24,1.24.04,2.19-.78,2.37-2.09.07-.51.06-1.02.06-1.54,0-7.19.03-14.38,0-21.57-.02-4.25,1.06-8.17,3.7-11.5,1.48-1.87,3.34-3.43,5-5.09-1.35-.65-2.9-1.4-4.52-2.19ZM85.74,119.99c0,1.1.06,2.08-.02,3.05-.07.85.29,1.26,1.01,1.58,1.73.78,3.43,2.26,5.16,2.28,1.67.02,3.35-1.44,5.02-2.25.04-.02.09-.03.13-.06,2.01-1.52,3.95-1.32,6.04,0,1.6,1.01,3.42,2.32,5.13,2.32,1.72,0,3.43-1.49,5.15-2.32.13-.06.29-.1.36-.2.2-.27.51-.56.53-.86.06-1.15.03-2.31.03-3.53h-28.54ZM114.22,50.74h-28.38v5.09h28.38v-5.09ZM85.8,115.73h28.42v-5.06h-28.42v5.06ZM114.34,60.09h-28.67c.09,1.78.17,3.43.25,5.13h28.18c.08-1.71.15-3.37.24-5.13ZM85.67,106.36h28.67c-.08-1.76-.16-3.42-.25-5.13h-28.17c-.09,1.7-.17,3.35-.26,5.13ZM112.3,96.98c-2.04-4.56-7.96-7.75-13.4-7.29-4.83.41-10.16,3.92-11.05,7.29h24.45ZM91.41,149.68c2.37,4.2,4.59,8.16,6.84,12.12,1.14,2.02,2.38,2.01,3.54-.03,2.09-3.68,4.17-7.37,6.25-11.07.17-.3.26-.64.42-1.03h-17.04ZM87.77,69.47c1.51,4.09,7.12,7.36,12.46,7.31,5.11-.05,10.66-3.41,12.01-7.31h-24.47Z"/>
</svg>