<?xml version="1.0" encoding="UTF-8"?>
<svg id="Capa_1" data-name="Capa 1" xmlns="http://www.w3.org/2000/svg" version="1.1" viewBox="0 0 491 474">
  <defs>
    <style>
      .cls-1 {
        fill: #c3006b;
        stroke-width: 0px;
      }
    </style>
  </defs>
  <g>
    <path class="cls-1" d="M27.94,208.32c-.62-1.43-.83-3-.63-4.73l6.79.77-.19,1.71c-.23,2.03.07,3.62.91,4.76.84,1.14,2.44,1.84,4.81,2.11l12.75,1.44-.73,6.47-25.59-2.9.73-6.47,3.97.45c-1.26-.98-2.2-2.19-2.82-3.62Z"/>
    <path class="cls-1" d="M53.04,164.08l-5.56,17.99c1.82.4,3.41.21,4.75-.57,1.35-.78,2.27-1.98,2.76-3.58.71-2.31.23-4.26-1.45-5.85l2.07-6.71c2.15,1.44,3.67,3.41,4.58,5.89.9,2.49.9,5.19,0,8.12-.73,2.37-1.92,4.33-3.55,5.89-1.63,1.56-3.57,2.56-5.82,3.02-2.25.46-4.63.29-7.15-.48-2.55-.79-4.62-2-6.23-3.63-1.6-1.63-2.64-3.54-3.09-5.73-.46-2.19-.31-4.49.44-6.92.72-2.34,1.88-4.28,3.45-5.82,1.58-1.54,3.45-2.53,5.62-2.98,2.17-.45,4.45-.3,6.85.44.89.27,1.67.58,2.34.92ZM46.92,169.05c-1.61-.46-3.07-.28-4.38.54-1.31.83-2.22,2.06-2.72,3.68-.48,1.54-.41,2.98.2,4.32.61,1.34,1.7,2.38,3.29,3.13l3.61-11.68Z"/>
    <path class="cls-1" d="M71.92,147.51c-1.47,1.1-3.02,1.76-4.63,1.99s-3.13,0-4.56-.68l3.16-5.74c.93.37,1.88.34,2.86-.09.98-.43,1.78-1.2,2.39-2.32.6-1.09.85-2.05.75-2.9-.1-.85-.49-1.46-1.16-1.84-.73-.4-1.49-.33-2.27.21s-1.83,1.51-3.16,2.9c-1.33,1.46-2.51,2.6-3.54,3.44-1.03.83-2.2,1.39-3.52,1.67-1.32.28-2.74,0-4.26-.84-1.25-.69-2.19-1.68-2.83-2.96-.64-1.29-.88-2.77-.74-4.44.14-1.67.72-3.42,1.72-5.24,1.48-2.69,3.33-4.46,5.56-5.32,2.23-.86,4.52-.74,6.89.35l-3.01,5.46c-.94-.41-1.86-.43-2.75-.06-.9.37-1.65,1.12-2.26,2.23-.57,1.03-.82,1.93-.74,2.7.07.77.45,1.34,1.13,1.71.76.42,1.55.36,2.36-.19.81-.54,1.86-1.5,3.15-2.88,1.3-1.4,2.47-2.52,3.48-3.33,1.02-.82,2.19-1.37,3.53-1.64,1.34-.27,2.76-.01,4.27.79,1.3.72,2.27,1.72,2.91,3.01s.87,2.76.72,4.43c-.16,1.67-.73,3.39-1.72,5.18-1.02,1.85-2.26,3.32-3.73,4.42Z"/>
    <path class="cls-1" d="M86.48,84.17l19.52,16.81-4.28,4.97-2.47-2.12c.3,1.36.25,2.76-.15,4.2-.4,1.44-1.11,2.75-2.14,3.95-1.31,1.53-2.8,2.6-4.46,3.22-1.66.62-3.4.72-5.24.31-1.83-.41-3.62-1.37-5.36-2.86l-11.45-9.86,4.25-4.93,10.75,9.25c1.55,1.33,3.08,1.97,4.58,1.92,1.5-.06,2.83-.75,3.98-2.09,1.17-1.36,1.68-2.79,1.51-4.28-.17-1.49-1.02-2.91-2.57-4.24l-10.75-9.25,4.28-4.97Z"/>
    <path class="cls-1" d="M138.74,46.38c2.69.52,5.01,2.21,6.96,5.08l8.48,12.51-5.39,3.65-7.98-11.78c-1.13-1.67-2.42-2.66-3.87-2.97-1.45-.31-2.9.03-4.36,1.02s-2.32,2.22-2.58,3.69c-.26,1.47.18,3.04,1.31,4.7l7.98,11.78-5.39,3.65-7.98-11.78c-1.13-1.67-2.42-2.66-3.87-2.97-1.45-.31-2.9.03-4.36,1.02-1.49,1.01-2.36,2.25-2.62,3.71-.26,1.47.18,3.04,1.31,4.7l7.98,11.78-5.39,3.65-14.45-21.32,5.39-3.65,1.75,2.58c.08-1.37.5-2.68,1.24-3.93.74-1.25,1.77-2.32,3.08-3.21,1.67-1.13,3.4-1.79,5.18-1.97,1.79-.18,3.48.14,5.09.96-.14-1.7.2-3.37,1.01-5.01.82-1.64,2-2.98,3.53-4.02,2.62-1.77,5.27-2.4,7.96-1.89Z"/>
    <path class="cls-1" d="M189.86,38.89l-17.79,6.18c.76,1.71,1.85,2.87,3.28,3.49,1.43.62,2.93.65,4.52.11,2.28-.79,3.57-2.34,3.85-4.64l6.63-2.3c.11,2.59-.57,4.98-2.03,7.18-1.47,2.2-3.65,3.8-6.55,4.81-2.34.81-4.62,1.02-6.84.63-2.22-.39-4.18-1.36-5.88-2.9-1.7-1.54-2.98-3.56-3.85-6.04-.88-2.52-1.13-4.91-.77-7.17.36-2.26,1.29-4.22,2.78-5.89s3.43-2.92,5.83-3.75c2.31-.8,4.56-1.03,6.73-.67,2.18.36,4.09,1.28,5.73,2.76,1.65,1.48,2.88,3.4,3.7,5.78.31.88.52,1.69.65,2.43ZM182.23,36.92c-.58-1.57-1.59-2.64-3.03-3.2-1.44-.56-2.97-.57-4.58,0-1.52.53-2.64,1.44-3.36,2.72-.72,1.28-.91,2.79-.58,4.51l11.55-4.01Z"/>
    <path class="cls-1" d="M270.59,19.1c1.42-.64,2.99-.87,4.72-.7l-.67,6.8-1.71-.17c-2.04-.2-3.62.13-4.75.98-1.13.85-1.81,2.47-2.04,4.84l-1.26,12.77-6.48-.64,2.53-25.63,6.48.64-.39,3.98c.97-1.27,2.16-2.23,3.58-2.87Z"/>
    <path class="cls-1" d="M315.2,43.54l-18.07-5.3c-.38,1.83-.16,3.41.64,4.74.8,1.33,2.01,2.24,3.61,2.71,2.32.68,4.26.17,5.83-1.54l6.74,1.98c-1.41,2.17-3.35,3.72-5.82,4.66-2.47.94-5.18.98-8.12.11-2.38-.7-4.36-1.85-5.94-3.46-1.58-1.61-2.61-3.54-3.1-5.78-.49-2.24-.36-4.63.38-7.16.75-2.56,1.93-4.65,3.54-6.28,1.61-1.63,3.5-2.69,5.68-3.18,2.18-.49,4.49-.38,6.93.33,2.35.69,4.31,1.81,5.87,3.37,1.56,1.56,2.58,3.42,3.06,5.57.48,2.16.37,4.44-.34,6.85-.26.89-.56,1.68-.88,2.36ZM310.14,37.5c.44-1.61.24-3.07-.61-4.37-.85-1.3-2.09-2.19-3.72-2.67-1.55-.45-2.99-.37-4.32.26-1.33.63-2.36,1.74-3.09,3.33l11.73,3.44Z"/>
    <path class="cls-1" d="M332.05,62.19c-1.12-1.46-1.81-2.99-2.06-4.6-.25-1.61-.04-3.13.62-4.57l5.79,3.08c-.36.93-.31,1.89.14,2.86.45.97,1.23,1.76,2.35,2.36,1.09.58,2.07.82,2.91.71.85-.11,1.45-.51,1.82-1.19.39-.74.31-1.49-.24-2.26-.56-.77-1.54-1.81-2.95-3.12-1.48-1.31-2.64-2.48-3.49-3.49-.85-1.01-1.42-2.18-1.72-3.5-.3-1.32-.04-2.74.77-4.28.67-1.26,1.64-2.21,2.92-2.87,1.28-.65,2.75-.92,4.43-.8,1.67.12,3.43.67,5.26,1.64,2.71,1.44,4.51,3.27,5.4,5.48.89,2.21.81,4.51-.25,6.9l-5.5-2.93c.4-.95.4-1.87.02-2.76-.39-.89-1.14-1.63-2.26-2.23-1.04-.55-1.94-.79-2.71-.7-.77.08-1.33.47-1.69,1.15-.41.77-.33,1.55.22,2.36.55.8,1.53,1.84,2.93,3.11,1.42,1.28,2.55,2.43,3.39,3.43.83,1.01,1.4,2.17,1.69,3.51.29,1.33.05,2.76-.72,4.28-.7,1.31-1.69,2.3-2.97,2.95-1.28.65-2.75.92-4.42.78-1.67-.13-3.4-.68-5.21-1.64-1.86-.99-3.35-2.21-4.47-3.67Z"/>
    <path class="cls-1" d="M395.59,75.82l-16.52,19.76-5.03-4.21,2.09-2.5c-1.36.32-2.76.29-4.2-.09-1.44-.38-2.77-1.07-3.98-2.09-1.55-1.29-2.64-2.76-3.28-4.41-.64-1.65-.77-3.39-.38-5.23.39-1.84,1.31-3.64,2.79-5.4l9.69-11.59,4.99,4.17-9.09,10.88c-1.31,1.57-1.93,3.1-1.85,4.6.08,1.5.8,2.82,2.15,3.95,1.38,1.15,2.81,1.64,4.3,1.45,1.49-.19,2.89-1.07,4.2-2.64l9.1-10.88,5.03,4.21Z"/>
    <path class="cls-1" d="M434.13,127.5c-.48,2.7-2.14,5.04-4.98,7.03l-12.38,8.66-3.73-5.33,11.66-8.15c1.65-1.16,2.62-2.46,2.91-3.91.29-1.45-.07-2.9-1.08-4.35-1.01-1.45-2.25-2.29-3.73-2.53s-3.03.22-4.68,1.38l-11.66,8.15-3.73-5.33,11.66-8.15c1.65-1.15,2.62-2.46,2.91-3.91s-.07-2.9-1.08-4.35c-1.03-1.47-2.28-2.33-3.75-2.57-1.47-.24-3.03.22-4.68,1.38l-11.66,8.15-3.73-5.33,21.11-14.76,3.73,5.33-2.55,1.79c1.37.06,2.68.46,3.95,1.18,1.26.72,2.35,1.73,3.25,3.03,1.15,1.65,1.84,3.37,2.04,5.15.21,1.78-.09,3.48-.89,5.1,1.7-.17,3.37.15,5.02.94,1.65.79,3.01,1.95,4.08,3.48,1.81,2.59,2.48,5.23,2,7.93Z"/>
    <path class="cls-1" d="M442.37,178.51l-6.44-17.69c-1.69.78-2.84,1.89-3.44,3.33-.6,1.44-.61,2.94-.04,4.52.83,2.27,2.39,3.53,4.69,3.78l2.4,6.6c-2.58.15-4.99-.49-7.21-1.93-2.22-1.43-3.86-3.59-4.91-6.48-.85-2.33-1.09-4.61-.73-6.83.36-2.23,1.3-4.2,2.82-5.92,1.52-1.72,3.51-3.04,5.99-3.94,2.5-.91,4.89-1.2,7.15-.87,2.26.33,4.24,1.23,5.93,2.69,1.69,1.46,2.97,3.39,3.83,5.78.84,2.3,1.09,4.54.77,6.72-.33,2.18-1.22,4.1-2.67,5.77-1.45,1.67-3.36,2.93-5.72,3.79-.87.32-1.68.55-2.42.68ZM444.23,170.86c1.56-.6,2.61-1.63,3.16-3.08.54-1.45.52-2.98-.06-4.58-.55-1.51-1.47-2.62-2.77-3.32-1.29-.7-2.8-.87-4.51-.51l4.18,11.49Z"/>
    <path class="cls-1" d="M463.34,258.94c.66,1.41.92,2.98.77,4.71l-6.81-.57.14-1.71c.17-2.04-.18-3.62-1.05-4.73-.87-1.12-2.5-1.77-4.87-1.97l-12.79-1.07.54-6.49,25.67,2.15-.54,6.49-3.98-.33c1.29.95,2.26,2.13,2.92,3.53Z"/>
    <path class="cls-1" d="M439.56,303.91l5.03-18.14c-1.83-.35-3.41-.11-4.73.71-1.32.82-2.21,2.04-2.65,3.65-.65,2.33-.11,4.26,1.62,5.81l-1.88,6.76c-2.19-1.38-3.77-3.3-4.75-5.75-.98-2.46-1.05-5.17-.23-8.12.66-2.39,1.79-4.39,3.37-5.99,1.59-1.6,3.5-2.67,5.73-3.19,2.24-.52,4.62-.43,7.16.27,2.57.71,4.68,1.86,6.33,3.44,1.65,1.58,2.74,3.46,3.26,5.63.52,2.17.45,4.48-.23,6.93-.65,2.36-1.75,4.33-3.28,5.92-1.53,1.58-3.38,2.63-5.53,3.15s-4.44.43-6.86-.24c-.9-.25-1.69-.53-2.37-.85ZM445.52,298.76c1.62.42,3.07.19,4.36-.67,1.29-.87,2.16-2.12,2.61-3.76.43-1.55.32-2.99-.32-4.31-.65-1.32-1.77-2.33-3.38-3.04l-3.27,11.78Z"/>
    <path class="cls-1" d="M421.17,321.02c1.44-1.14,2.96-1.85,4.57-2.12,1.6-.27,3.13-.09,4.58.55l-2.99,5.83c-.94-.34-1.89-.28-2.86.18-.97.46-1.74,1.26-2.32,2.39-.57,1.1-.79,2.08-.67,2.92.12.85.53,1.45,1.22,1.8.74.38,1.5.29,2.26-.28.76-.57,1.79-1.56,3.08-2.99,1.29-1.5,2.44-2.68,3.44-3.54,1-.86,2.16-1.45,3.47-1.77,1.31-.32,2.74-.08,4.29.71,1.27.65,2.24,1.61,2.91,2.88s.96,2.74.87,4.42c-.09,1.68-.62,3.44-1.56,5.29-1.4,2.73-3.2,4.56-5.4,5.48-2.2.93-4.5.88-6.9-.15l2.85-5.54c.95.38,1.87.38,2.76-.02.88-.4,1.62-1.16,2.2-2.29.54-1.05.76-1.95.66-2.72-.1-.76-.49-1.32-1.18-1.68-.77-.4-1.56-.31-2.35.26-.8.57-1.82,1.56-3.07,2.97-1.26,1.44-2.39,2.59-3.38,3.44-.99.85-2.15,1.43-3.48,1.74-1.33.31-2.76.09-4.29-.66-1.32-.68-2.32-1.65-2.99-2.92-.67-1.27-.96-2.74-.85-4.41.11-1.67.63-3.41,1.56-5.23.96-1.88,2.16-3.38,3.6-4.53Z"/>
    <path class="cls-1" d="M408.46,384.76l-20-16.23,4.13-5.09,2.53,2.05c-.34-1.35-.33-2.75.03-4.2.36-1.45,1.03-2.79,2.03-4.01,1.27-1.56,2.72-2.68,4.36-3.35,1.64-.67,3.38-.82,5.22-.46,1.84.36,3.66,1.26,5.44,2.71l11.73,9.52-4.1,5.05-11.01-8.94c-1.59-1.29-3.13-1.88-4.63-1.78-1.5.1-2.81.84-3.92,2.21-1.13,1.4-1.59,2.84-1.38,4.33.21,1.49,1.11,2.88,2.7,4.17l11.01,8.94-4.13,5.09Z"/>
    <path class="cls-1" d="M357.34,424.05c-2.7-.44-5.07-2.06-7.1-4.88l-8.84-12.25,5.28-3.81,8.32,11.54c1.18,1.63,2.5,2.59,3.95,2.85s2.9-.11,4.33-1.15c1.43-1.03,2.26-2.29,2.47-3.76.22-1.47-.26-3.03-1.44-4.66l-8.32-11.54,5.28-3.81,8.32,11.54c1.18,1.63,2.5,2.58,3.95,2.85,1.46.27,2.9-.11,4.33-1.15,1.46-1.05,2.3-2.31,2.51-3.79.22-1.48-.26-3.03-1.44-4.66l-8.32-11.54,5.28-3.81,15.07,20.89-5.28,3.81-1.82-2.53c-.04,1.37-.42,2.69-1.12,3.96-.71,1.27-1.7,2.37-2.98,3.3-1.63,1.18-3.34,1.88-5.12,2.12-1.78.23-3.48-.04-5.11-.81.19,1.7-.1,3.38-.87,5.04-.77,1.66-1.91,3.04-3.42,4.13-2.56,1.85-5.2,2.55-7.9,2.12Z"/>
    <path class="cls-1" d="M306.46,433.04l17.6-6.7c-.81-1.68-1.93-2.81-3.38-3.39-1.45-.58-2.95-.57-4.52.03-2.26.86-3.5,2.44-3.71,4.75l-6.56,2.5c-.19-2.58.42-4.99,1.82-7.24,1.4-2.24,3.54-3.91,6.4-5,2.32-.88,4.59-1.16,6.82-.83,2.23.33,4.22,1.24,5.96,2.73,1.75,1.49,3.09,3.47,4.02,5.93.95,2.49,1.28,4.87.98,7.14-.3,2.27-1.16,4.26-2.6,5.97-1.44,1.71-3.35,3.01-5.72,3.92-2.29.87-4.53,1.16-6.71.86-2.19-.3-4.12-1.16-5.81-2.59-1.69-1.43-2.98-3.32-3.87-5.66-.33-.87-.57-1.67-.72-2.41ZM314.14,434.8c.62,1.55,1.67,2.59,3.13,3.11,1.46.52,2.99.48,4.58-.13,1.51-.57,2.6-1.51,3.28-2.82.68-1.3.83-2.81.44-4.52l-11.43,4.35Z"/>
    <path class="cls-1" d="M226.37,455.18c-1.4.68-2.96.96-4.69.84l.47-6.82,1.72.12c2.04.14,3.61-.23,4.71-1.12,1.1-.89,1.74-2.52,1.9-4.9l.88-12.8,6.49.45-1.78,25.7-6.49-.45.28-3.99c-.93,1.3-2.09,2.29-3.49,2.97Z"/>
    <path class="cls-1" d="M181.04,432.07l18.22,4.76c.32-1.84.06-3.41-.78-4.72-.84-1.31-2.07-2.18-3.69-2.6-2.34-.61-4.27-.04-5.78,1.71l-6.79-1.78c1.35-2.21,3.24-3.82,5.68-4.83,2.44-1.01,5.15-1.13,8.12-.35,2.4.63,4.41,1.72,6.04,3.29,1.63,1.56,2.72,3.46,3.27,5.68.56,2.23.5,4.62-.17,7.16-.67,2.58-1.79,4.71-3.35,6.38-1.56,1.67-3.42,2.79-5.58,3.35-2.16.55-4.47.51-6.93-.13-2.37-.62-4.36-1.68-5.96-3.19-1.61-1.51-2.68-3.34-3.23-5.48-.54-2.15-.5-4.43.14-6.86.24-.9.51-1.69.81-2.38ZM186.28,437.95c-.39,1.63-.15,3.08.74,4.35.89,1.27,2.15,2.12,3.8,2.56,1.56.41,3,.28,4.31-.39,1.31-.67,2.31-1.81,2.99-3.42l-11.83-3.09Z"/>
    <path class="cls-1" d="M163.65,413.93c1.16,1.42,1.89,2.93,2.19,4.53s.14,3.13-.48,4.59l-5.87-2.91c.33-.94.26-1.9-.22-2.86-.48-.96-1.28-1.72-2.42-2.29-1.11-.55-2.09-.76-2.93-.62-.84.13-1.44.55-1.78,1.24-.37.75-.27,1.5.31,2.25.58.75,1.59,1.76,3.04,3.03,1.52,1.27,2.71,2.4,3.59,3.39.88.99,1.48,2.14,1.82,3.44s.12,2.74-.65,4.3c-.63,1.28-1.58,2.26-2.84,2.95-1.26.69-2.73,1-4.4.93-1.68-.07-3.45-.57-5.31-1.49-2.75-1.36-4.6-3.13-5.56-5.32-.96-2.19-.94-4.49.05-6.9l5.58,2.76c-.37.96-.35,1.88.06,2.75.41.88,1.19,1.6,2.33,2.16,1.06.52,1.96.73,2.73.62.76-.11,1.31-.51,1.66-1.2.38-.78.29-1.56-.29-2.35-.58-.79-1.58-1.8-3.02-3.02-1.46-1.24-2.62-2.35-3.49-3.33s-1.46-2.13-1.79-3.46-.13-2.75.6-4.3c.66-1.33,1.62-2.34,2.88-3.04,1.26-.69,2.72-1,4.39-.91,1.67.08,3.42.58,5.26,1.49,1.89.94,3.41,2.11,4.58,3.54Z"/>
    <path class="cls-1" d="M99.73,402.15l15.94-20.23,5.15,4.06-2.01,2.56c1.35-.36,2.75-.37,4.2-.04s2.8.99,4.04,1.97c1.58,1.25,2.72,2.68,3.41,4.31.69,1.63.87,3.37.54,5.22-.33,1.85-1.21,3.67-2.63,5.48l-9.35,11.87-5.11-4.03,8.77-11.14c1.27-1.61,1.84-3.16,1.71-4.66-.12-1.5-.88-2.79-2.27-3.89-1.41-1.11-2.86-1.55-4.34-1.32-1.48.23-2.86,1.15-4.12,2.76l-8.77,11.14-5.15-4.06Z"/>
    <path class="cls-1" d="M59.71,351.62c.4-2.71,1.99-5.1,4.78-7.17l12.12-9.02,3.88,5.22-11.42,8.49c-1.62,1.2-2.55,2.53-2.8,3.99s.16,2.9,1.21,4.31c1.05,1.42,2.32,2.22,3.8,2.42,1.48.2,3.02-.31,4.64-1.51l11.42-8.49,3.88,5.22-11.42,8.49c-1.62,1.2-2.55,2.53-2.8,3.99s.16,2.9,1.21,4.32c1.07,1.44,2.35,2.26,3.83,2.46,1.48.2,3.02-.31,4.64-1.51l11.42-8.49,3.88,5.22-20.67,15.37-3.88-5.22,2.5-1.86c-1.37-.02-2.7-.38-3.98-1.07-1.28-.69-2.4-1.67-3.34-2.93-1.2-1.62-1.93-3.31-2.19-5.09-.26-1.78-.01-3.49.74-5.12-1.69.22-3.38-.05-5.05-.79-1.67-.75-3.07-1.86-4.18-3.36-1.89-2.54-2.63-5.16-2.23-7.87Z"/>
    <path class="cls-1" d="M49.97,300.88l6.96,17.5c1.67-.83,2.78-1.97,3.34-3.43.56-1.46.52-2.96-.1-4.52-.89-2.25-2.49-3.46-4.8-3.64l-2.6-6.52c2.58-.23,5,.35,7.26,1.71,2.26,1.37,3.96,3.48,5.09,6.33.92,2.3,1.23,4.57.93,6.81-.29,2.24-1.17,4.24-2.64,6-1.46,1.77-3.42,3.14-5.87,4.11-2.48.99-4.85,1.35-7.12,1.08-2.27-.26-4.27-1.1-6-2.51-1.73-1.41-3.06-3.3-4-5.66-.9-2.28-1.23-4.51-.96-6.7.26-2.19,1.1-4.14,2.5-5.85,1.41-1.71,3.27-3.03,5.61-3.96.86-.34,1.67-.59,2.4-.75ZM48.33,308.59c-1.54.65-2.57,1.71-3.07,3.17-.5,1.47-.44,2.99.19,4.58.6,1.5,1.55,2.58,2.86,3.24s2.82.79,4.53.38l-4.52-11.36Z"/>
  </g>
  <path class="cls-1" d="M448.14,221.14c-1.12-1.07-1.67-2.4-1.67-4s.56-2.93,1.67-4c1.12-1.07,2.54-1.61,4.27-1.61s3.08.54,4.17,1.61c1.09,1.07,1.64,2.41,1.64,4s-.55,2.93-1.64,4c-1.09,1.07-2.48,1.61-4.17,1.61s-3.16-.53-4.27-1.61Z"/>
  <path class="cls-1" d="M35.19,264.9c-1.12-1.07-1.67-2.4-1.67-4s.56-2.93,1.67-4c1.12-1.07,2.54-1.61,4.27-1.61s3.08.54,4.17,1.61c1.09,1.07,1.64,2.41,1.64,4s-.55,2.93-1.64,4c-1.09,1.07-2.48,1.61-4.17,1.61s-3.16-.53-4.27-1.61Z"/>
  <path class="cls-1" d="M223.89,32.44c-1.12-1.07-1.67-2.4-1.67-4s.56-2.93,1.67-4c1.12-1.07,2.54-1.61,4.27-1.61s3.08.54,4.17,1.61c1.09,1.07,1.64,2.41,1.64,4s-.55,2.93-1.64,4c-1.09,1.07-2.48,1.61-4.17,1.61s-3.16-.53-4.27-1.61Z"/>
  <path class="cls-1" d="M270.38,448.13c-1.12-1.07-1.67-2.4-1.67-4s.56-2.93,1.67-4c1.12-1.07,2.54-1.61,4.27-1.61s3.08.54,4.17,1.61c1.09,1.07,1.64,2.41,1.64,4s-.55,2.93-1.64,4c-1.09,1.07-2.48,1.61-4.17,1.61s-3.16-.53-4.27-1.61Z"/>
</svg>