<?xml version="1.0" encoding="UTF-8"?>
<svg id="Capa_1" data-name="Capa 1" xmlns="http://www.w3.org/2000/svg" version="1.1" viewBox="0 0 200 200">
  <defs>
    <style>
      .cls-1 {
        fill: #c3006b;
        stroke-width: 0px;
      }
    </style>
  </defs>
  <path class="cls-1" d="M32.74,89.99c0-.18,0-.35,0-.53.47-2.35,2.02-3.57,4.18-4.42,5.74-2.27,11.4-4.7,17.11-7.04,2.68-1.1,5.13-.08,6.26,2.58.84,1.97,1.64,3.96,2.46,5.94,3.06,7.4,6.12,14.8,9.21,22.18.16.39.66.96.96.93,1.51-.15,3-.46,4.56-.73-.04-.3-.05-.56-.11-.8-3.09-13.16-6.2-26.32-9.24-39.49-.81-3.52-1.91-6.96-1.67-10.71.42-6.25.53-12.52.73-18.78.12-3.88.96-5.16,4.48-6.5h1.58c2.14.58,3.42,2.05,4.43,3.97,3.25,6.15,6.61,12.25,9.91,18.38.37.69.71,1.42.89,2.18,2.93,12.44,5.83,24.88,8.73,37.32.65,2.79,1.32,5.58,1.99,8.44,1.53-1.06,2.88-2.12,4.34-2.96.95-.55,1.32-1.11,1.27-2.25-.35-7.82.29-15.58,1.47-23.31.1-.63-.18-1.47-.58-1.99-5.05-6.47-3.9-13.9.59-18.68,2.76-2.94,5.03-6.39,7.24-9.78,1.51-2.32,2.02-5.05,1.31-7.83-.39-1.53-.02-2.65,1.29-3.48h1.58c3.56,2.88,6.61,6.24,9.17,10.04,6.72,9.99,7.29,21.33-.06,30.95-.26.34-.33.88-.35,1.33-.21,5.43-.37,10.86-.6,16.29-.07,1.6-.35,3.2-.51,4.68,2.75.99,5.36,1.94,8.1,2.93,2.33-5.82,4.81-11.61,6.95-17.53.95-2.65,1.31-5.53,1.74-8.34.24-1.57.83-2.68,2.18-3.51,4.89-3.01,9.74-6.07,14.62-9.11,2.29-1.43,3.69-.83,4.29,1.78,1.27,5.5,2.51,11.02,3.83,16.51.41,1.68.15,3.05-.98,4.38-2.63,3.1-4.65,6.58-6.2,10.33-3.54,8.53-7.05,17.08-10.54,25.63-.24.58-.28,1.27-.27,1.9.04,2.79.16,5.59.2,8.38.01.68-.15,1.36-.24,2.09.6.05,1.07.1,1.55.14,9.7.76,16.89,8.84,16.59,18.64-.29,9.38-8.2,17.17-17.71,17.18-33.02.05-66.04.04-99.07,0-8.03,0-15.14-5.72-17.1-13.48-.21-.84-.39-1.7-.58-2.55,0-1.32,0-2.63,0-3.95.08-.24.2-.47.25-.72,1.15-6.43,4.69-11.05,10.65-13.68,1.85-.82,3.9-1.16,5.98-1.75-.11-.31-.26-.75-.44-1.18-1.75-4.24-3.53-8.48-5.27-12.73-3.73-9.1-7.44-18.2-11.16-27.3ZM100.13,162.87c16.44,0,32.89.04,49.33-.02,8.01-.03,14.24-6.87,13.47-14.61-.8-8.05-8.05-13.51-16.03-12.07-2.29.41-3.52-.92-2.9-3.21,1.06-3.91,1.25-7.84.58-11.85-2.33-13.75-16.34-23.47-30-20.72-9.23,1.86-15.7,7.19-19.38,15.85-.4.94-.9,1.87-1.98,1.83-.8-.03-1.69-.41-2.37-.88-8.39-5.71-19.58-4.82-26.86,2.22-4.09,3.95-6.25,8.81-6.53,14.49-.08,1.61-.87,2.61-2.18,2.62-.6,0-1.21-.18-1.8-.31-9.56-2.1-18.21,6.74-15.89,16.26,1.52,6.25,6.83,10.38,13.47,10.39,16.36.02,32.71,0,49.07,0ZM57.75,86.18c-.61-1.45-1.16-2.76-1.73-4.14-6.29,2.61-12.45,5.16-18.67,7.74,5.42,13.07,10.77,25.97,16.25,39.17,2.3-8.31,7.15-14.05,14.54-17.68-.63-1.5-1.2-2.87-1.8-4.31-.55.22-1,.39-1.43.57-2.27.93-4.52,1.9-6.81,2.78-1.57.61-3.09-.32-3.16-1.88-.05-1.21.65-1.92,1.73-2.36,2.63-1.07,5.25-2.17,7.95-3.29-.58-1.41-1.13-2.73-1.66-4.01-.14-.01-.19-.03-.23-.02-1.22.49-2.43,1-3.65,1.47-1.51.59-2.76.13-3.27-1.17-.48-1.23.1-2.35,1.58-2.99,1.23-.53,2.48-1.04,3.8-1.59-.6-1.43-1.15-2.74-1.73-4.12-2.67,1.1-5.21,2.17-7.76,3.19-.55.22-1.2.41-1.76.34-1.07-.14-1.72-.89-1.84-1.95-.12-1.14.48-1.93,1.51-2.36,2.66-1.12,5.33-2.21,8.15-3.37ZM92.12,111.97c.99-1.52,1.72-2.82,2.63-3.99.6-.78.7-1.47.48-2.41-2.27-9.59-4.49-19.18-6.73-28.78-.97-4.16-1.96-8.31-2.94-12.48-1.1.81-2.07,1.63-3.15,2.27-.66.39-.79.76-.6,1.47.48,1.82.88,3.66,1.29,5.5.34,1.5-.29,2.69-1.56,2.99-1.32.31-2.37-.42-2.77-1.93-.09-.34-.17-.68-.25-1.02-.44-1.82-.87-3.63-1.27-5.29-1.69-.32-3.17-.61-4.75-.91.03.23.05.44.09.64,1.37,5.84,2.74,11.68,4.1,17.52,1.77,7.55,3.52,15.09,5.31,22.63.09.4.41.94.74,1.04,1.36.41,2.76.68,4.26,1.03-.07-.47-.09-.81-.17-1.14-.96-4.14-1.94-8.27-2.91-12.41-.81-3.45-1.64-6.9-2.44-10.36-.45-1.94.45-3.3,2.12-3.25,1.39.04,1.97.95,2.26,2.16,1.15,4.9,2.29,9.81,3.44,14.71.92,3.91,1.83,7.81,2.81,11.97ZM119.48,40.42c-.61,3.27-1.77,5.98-3.5,8.36-2.11,2.9-4.36,5.71-6.68,8.43-3.05,3.57-3.21,8.72-.17,12.28.36.42.98.81,1.5.85,3.89.3,7.78.52,11.67.71.39.02.96-.23,1.19-.54,3.32-4.45,4.84-9.43,3.89-14.94-.81-4.73-2.86-8.99-5.85-12.76-.59-.74-1.23-1.44-2.05-2.38ZM155.92,67.86c-.06-.06-.13-.12-.19-.18-2.82,1.76-5.65,3.5-8.45,5.3-.33.21-.54.73-.65,1.15-.91,3.55-1.8,7.11-2.64,10.67-.12.5-.11,1.14.11,1.59,1.93,4.16,7.04,6.24,11.3,4.61.47-.18.9-.65,1.17-1.09,1.91-3.08,3.77-6.18,5.63-9.29.21-.35.49-.81.41-1.15-.72-3.31-1.51-6.61-2.35-10.21-.32.71-.52,1.13-.7,1.56-.88,2.1-1.72,4.21-2.63,6.29-.56,1.28-1.73,1.75-2.91,1.29-1.14-.45-1.65-1.64-1.24-2.94.1-.33.27-.65.4-.97.91-2.21,1.82-4.43,2.73-6.64ZM146.82,113.35c2.42-5.84,4.74-11.46,7.13-17.23-5.07.2-9.12-1.51-12.46-5.12-1.47,3.56-2.9,7.02-4.32,10.47,4.23,3.16,7.33,7.06,9.65,11.88ZM71.25,52.53c-.11,2.61-.22,5.05-.29,7.48,0,.27.16.58.33.81,1.49,2.03,4.79,3.17,7.31,2.54,2.35-.59,4.78-3.18,5.13-5.5.03-.21.07-.47-.02-.64-1.2-2.26-2.42-4.5-3.69-6.85-2.66,2.12-5.56,2.63-8.77,2.15ZM109.42,86.08v10.69c3.76-.53,7.55-1.06,11.51-1.62.28-2.65.59-5.54.88-8.33-4.16-.25-8.13-.49-12.39-.74ZM122.01,75.58c-3.85-.23-7.53-.44-11.28-.66-.27,2.28-.52,4.33-.81,6.73,4.14.21,8.06.42,12.09.63v-6.69ZM77.79,46.41c-.15-.33-.28-.65-.44-.95-1.39-2.58-2.78-5.17-4.21-7.73-.14-.25-.66-.58-.79-.5-.28.17-.59.56-.61.88-.14,3.06-.25,6.13-.3,9.2,0,.27.46.74.76.79,2.1.35,3.99-.1,5.59-1.69Z"/>
  <path class="cls-1" d="M124.67,56.61c0,3.84-.97,7.01-2.92,9.87-.96,1.41-2.16,1.78-3.33,1.05-1.18-.74-1.36-2.11-.39-3.55,1.9-2.83,2.43-5.93,2-9.26-.18-1.39.58-2.4,1.81-2.6,1.25-.2,2.23.5,2.56,1.87.07.3.13.6.15.9.06.7.09,1.4.11,1.72Z"/>
</svg>