<?xml version="1.0" encoding="UTF-8"?>
<svg id="Capa_1" data-name="Capa 1" xmlns="http://www.w3.org/2000/svg" version="1.1" viewBox="0 0 200 200">
  <defs>
    <style>
      .cls-1 {
        fill: #c3006b;
        stroke-width: 0px;
      }
    </style>
  </defs>
  <path class="cls-1" d="M51.37,87.17c-.97,0-1.94.07-2.9-.02-1.01-.09-1.91-.66-1.63-1.74.17-.65,1-1.53,1.61-1.59,2.03-.2,4.09-.2,6.12,0,.6.06,1.53,1.05,1.54,1.62.01.56-.88,1.45-1.53,1.63-1,.28-2.13.07-3.21.07,0,0,0,.01,0,.02Z"/>
  <path class="cls-1" d="M101.81,37.13c0,.97.05,1.94-.01,2.91-.07,1.07-.57,1.92-1.77,1.88-1.1-.04-1.61-.84-1.64-1.85-.06-1.88-.19-3.79.07-5.64.09-.69,1.1-1.63,1.82-1.77,1.12-.21,1.64.74,1.61,1.89-.02.86,0,1.72,0,2.58h-.07Z"/>
  <path class="cls-1" d="M148.61,87.49c-1.07,0-2.15.07-3.22-.02-.99-.08-1.77-.6-1.74-1.72.03-1.1.81-1.67,1.81-1.66,2.18.02,4.38.06,6.54.34.51.07,1.26,1.13,1.21,1.68-.04.52-.93,1.21-1.56,1.36-.96.23-2.02.06-3.04.06,0-.01,0-.03,0-.04Z"/>
  <path class="cls-1" d="M138.96,106.62c.42.24.64.37.87.5,1.63.94,3.25,1.88,4.88,2.82,1.01.59,1.83,1.33,1.13,2.58-.69,1.22-1.69,1.01-2.75.36-1.55-.96-3.23-1.73-4.7-2.79-.49-.35-.77-1.36-.7-2.01.06-.52.81-.96,1.28-1.46Z"/>
  <path class="cls-1" d="M123.33,48.1c-1.64.03-2.48-1.13-1.87-2.31.98-1.9,2.08-3.74,3.21-5.55.52-.83,1.39-1.05,2.24-.48.8.53,1.07,1.31.55,2.23-1.01,1.76-1.99,3.54-3.06,5.27-.27.44-.86.69-1.06.84Z"/>
  <path class="cls-1" d="M54.94,112.88c-.26-.21-.99-.52-1.11-.99-.15-.56,0-1.59.4-1.85,1.93-1.26,3.94-2.41,6.02-3.4.4-.19,1.46.34,1.77.82.26.4.1,1.56-.26,1.8-1.92,1.28-3.95,2.38-5.96,3.52-.13.07-.32.04-.86.1Z"/>
  <path class="cls-1" d="M72.67,40.66c.21-.26.5-.95.98-1.13.5-.18,1.5-.07,1.73.28,1.29,1.97,2.48,4.01,3.52,6.12.2.4-.32,1.46-.8,1.78-.4.26-1.56.11-1.8-.25-1.28-1.91-2.37-3.95-3.51-5.95-.07-.13-.04-.32-.11-.86Z"/>
  <path class="cls-1" d="M62.41,62.69c-.05,1.53-1.19,2.3-2.27,1.72-1.94-1.05-3.87-2.12-5.68-3.37-.48-.33-.47-1.35-.69-2.06.75-.22,1.69-.85,2.23-.6,1.99.92,3.87,2.09,5.74,3.25.38.24.54.85.66,1.05Z"/>
  <path class="cls-1" d="M137.8,62.83c.17-.21.42-.79.86-1.06,1.68-1.05,3.41-1.99,5.12-2.98.96-.56,1.81-.37,2.35.54.55.92.25,1.77-.67,2.32-1.75,1.03-3.49,2.09-5.28,3.03-1.26.66-2.46-.14-2.39-1.84Z"/>
  <path class="cls-1" d="M131.29,70.8c-1.05-2.68-2.7-5.12-4.14-7.62-.52-.91-1.44-1.2-2.35-.54-.91.63-.87,1.52-.35,2.42.17.26.35.54.52.81,2.94,4.38,4.7,9.12,5.12,14.41.74,9.6-2.22,17.92-9.25,24.43-4.35,4.07-7.88,8.45-9.45,14.18h-5.88v-9.58s.07.04.11.04c2.13.61,4.27-.33,5.62-2.44.04-.07.13-.13.2-.2.11.02.17.02.24.04,3.85,1.05,7.19-2.07,6.31-5.94-.11-.5.13-.61.46-.78,1.74-.89,2.87-2.26,3.31-4.2.35-1.46.13-2.85-.5-4.22,2.03-.96,3.18-2.48,3.18-4.7s-1.2-3.75-3.18-4.68c.78-1.72.89-3.42.24-5.14-.68-1.72-1.96-2.83-3.57-3.57,1.18-4.22-2.48-7.69-6.53-6.4-.11-.15-.22-.33-.33-.5-1.48-2.26-4.31-2.96-6.66-1.61-1.87,1.05-2.57,2.76-2.57,4.83v18.66h-2.48v-12.91c0-2,.02-4.01-.02-6.01-.02-2.55-1.44-4.44-3.77-5.09-2.16-.59-4.29.33-5.64,2.44-.04.07-.11.13-.17.22-.15-.04-.28-.09-.39-.11-3.57-.94-6.86,1.98-6.25,5.64.13.72-.04.96-.63,1.28-2,1.13-3.16,2.87-3.18,5.18-.02,1.02.28,2.07.44,3.16-4.09,1.94-4.03,7.38.17,9.34-.04.13-.07.2-.09.26-1.37,3.27-.15,6.58,2.98,8.17.39.22.46.39.37.83-.85,3.64,2.42,6.86,6.03,5.94.5-.13.68.02.94.41.96,1.44,2.46,2.24,4.07,2.26v9.49c-1.94,0-3.66.04-5.36-.04-.33-.02-.78-.61-.89-1.02-1.22-4.55-3.55-8.4-7.14-11.45-2.53-2.13-4.66-4.57-6.36-7.43-4.73-7.9-6.29-16.13-3.38-25.13,6.62-20.34,29.92-27.94,47.34-15.31.96.67,2,.3,2.29-.85.28-1.15-.26-1.89-1.2-2.53-7.47-5.12-15.74-7.29-24.65-5.73-13.91,2.4-22.82,10.87-27.28,24.04-1.83,5.4-1.79,11.02-.44,16.57,1.81,7.47,5.53,13.78,11.41,18.81,3.14,2.68,5.2,6.03,6.1,10.1-2.79,1.09-3.75,2.46-3.75,5.29-.02,1.13-.02,2.26-.02,3.4.02,3.83,1.18,5.49,4.88,6.73,0,4.31-.02,8.69.04,13.04,0,.83.2,1.74.61,2.44,3.09,4.96,6.23,9.91,9.38,14.83,2.24,3.51,5.38,3.46,7.66-.02,3.07-4.7,6.16-9.36,9.12-14.11.57-.89.89-2.07.91-3.14.09-4.29.04-8.6.04-12.89,3.31-.85,5.01-2.79,4.86-6.18-.02-.3.17-.63.17-.94.02-4.68.98-6.27-3.53-8.38.13-.5.24-1,.39-1.5,1.22-3.81,3.64-6.75,6.62-9.36,10.73-9.43,14.41-24.15,9.23-37.43ZM104.37,69.69c0-.41.02-.87.17-1.26.57-1.59,2.59-2.11,3.88-1.05.76.63.81,1.11.39,1.98-.35.74-.54,1.55-.85,2.42h2.57c.65-1.87,1.55-2.61,2.92-2.42,1.24.15,2.13,1.13,2.18,2.35.07,1.37-.76,2.29-2.42,2.68v2.42c1.02.02,1.87-.33,2.72-.83.28-.15.72-.22,1.02-.11,1.68.54,2.72,2.37,2.4,4.09-.22,1.26-.98,2.26-2.05,2.77-.48.26-1.02.39-1.59.39-.7,0-1.37-.17-1.94-.5-.72-.41-1.28-1.07-1.57-1.85-.11-.22-.17-.46-.22-.7-.09-.61-.33-.76-.87-.72-.57.02-1.11,0-1.65,0-.02.24-.02.5.02.74.13,2.18,1.85,4.4,3.96,5.14.2.06.37.13.57.17,1.13.28,2.24.3,3.33-.04.44-.11.87-.28,1.31-.52,1.33-.72,2.77-.11,3.18,1.37.33,1.13-.2,2.35-1.26,2.9-.59.31-1.11.35-1.76-.04-.81-.48-1.59-.78-2.4-.87-1.35-.2-2.7.13-4.01.91-1.18.72-1.98,1.65-2.48,2.81-.3.74-.5,1.59-.54,2.53.76,0,1.46.04,2.16-.04.17-.02.37-.39.41-.63.35-1.79,1.85-3.05,3.64-3.07,1.83-.02,3.35,1.18,3.75,2.96.37,1.74-.54,3.51-2.2,4.22-.48.22-.83.2-1.33-.09-.76-.44-1.63-.68-2.61-1.05v2.64c1.83.54,2.59,1.48,2.44,2.9-.13,1.18-1.11,2.09-2.29,2.18-1.39.11-2.26-.65-2.79-2.46h-2.37c-.09,1.02.24,1.89.78,2.66.28.41.26.72.02,1.11-.52.85-1.63,1.37-2.59,1.2-.33-.07-.63-.2-.89-.39-.61-.37-1.05-1.02-1.11-1.74-.04-.22-.04-.46-.04-.68,0-8.41,0-16.79.02-25.19v-9.28ZM99.34,104.01v-11.89h2.48c0,4.01-.02,8.03,0,12.06,0,.5.07.98.17,1.42v13.33h-4.25v-10.8c1.02-.98,1.59-2.39,1.59-4.12ZM92.29,105.94c-.33-.44-.39-.81-.07-1.35.44-.74.65-1.61,1.02-2.59h-2.68c-.2,1.26-.81,2.2-2.13,2.44-1.35.22-2.61-.65-2.87-1.98-.26-1.28.54-2.61,1.85-2.9.5-.11.63-.28.61-.74-.02-.59,0-1.2,0-1.83-1.07-.02-1.92.33-2.74.78-.3.17-.76.26-1.09.15-1.68-.57-2.7-2.35-2.4-4.09.33-1.83,1.83-3.14,3.66-3.14.24,0,.48.02.7.07.59.41,1.22.72,1.87.89.59.52,1,1.2,1.15,2,.04.22.09.46.13.72h2.4c.07-.81-.11-1.61-.41-2.37-.83-1.89-2.66-3.46-4.68-3.75-.96-.13-1.89-.09-2.77.15-.44.13-.87.28-1.28.52-1.39.74-2.81.15-3.22-1.35-.33-1.11.17-2.31,1.2-2.85.59-.35,1.15-.39,1.83,0,.04.02.11.06.15.06,1.22.7,2.44.96,3.64.81.89-.09,1.81-.41,2.68-.96,1.7-1.07,2.66-2.59,2.9-4.57.02-.22.04-.44.04-.68h-2.46c-.04.2-.07.37-.11.57,0,.04-.02.11-.02.15-.3,1.55-1.57,2.72-3.11,2.94-.17.04-.39.06-.59.06-1.02-.02-1.96-.41-2.61-1.11-.54-.52-.94-1.26-1.07-2.09-.28-1.7.74-3.48,2.37-4.05.33-.11.81-.02,1.11.13.81.48,1.63.83,2.7.83h.04v-.02c0-.74.02-1.42-.04-2.11,0-.15-.33-.35-.54-.41-1.15-.35-1.92-1.31-1.92-2.46,0-1.09.74-2.09,1.76-2.4,1.13-.33,2.33.13,2.9,1.13.2.37.28.81.46,1.28h1.7c.2,0,.39-.02.63-.04.11-1.05-.3-1.87-.76-2.74-.13-.24-.17-.68-.04-.91.41-.94,1.57-1.48,2.59-1.28,1.07.17,1.92,1.11,2.03,2.18.02.2.02.39.02.61v34.51c0,1.13-.35,2.05-1.39,2.57-.37.2-.78.28-1.2.24-.74-.02-1.46-.37-1.92-1.02ZM99.58,164.5c-3.11-4.88-5.97-9.36-8.88-13.98h18.03c-3.09,4.7-5.97,9.1-9.15,13.98ZM89.35,147.01v-12.5h4.7v12.5h-4.7ZM97.67,146.75v-12.22h4.14v12.61c-1.39-.13-2.72-.26-4.14-.39ZM110.25,147.01h-4.94v-12.48h4.94v12.48ZM115.18,124.71v4.05c-.02,1.44-.72,2.2-2.18,2.2h-26.52c-1.37,0-2.09-.7-2.11-2.09-.02-1.55.07-3.11-.02-4.68-.09-1.37.48-1.79,1.79-1.79,4.57.04,9.17.02,13.74.02h13.09c2.22,0,2.22.02,2.22,2.29Z"/>
</svg>