<?xml version="1.0" encoding="UTF-8"?>
<svg id="Capa_1" data-name="Capa 1" xmlns="http://www.w3.org/2000/svg" version="1.1" viewBox="0 0 200 200">
  <defs>
    <style>
      .cls-1 {
        fill: #c3006b;
        stroke-width: 0px;
      }
    </style>
  </defs>
  <path class="cls-1" d="M167.36,128.68c-1.68,2.3-3.11,2.41-5.12.4-2.79-2.79-5.57-5.58-8.59-8.61-.76.87-1.4,1.72-2.14,2.45-1.27,1.25-2.73,1.3-3.85.21-1.14-1.1-1.08-2.65.18-3.95.7-.72,1.46-1.39,2.09-1.98-1.97-1.98-3.84-3.86-5.58-5.6-7.01,7.02-14.19,14.2-21.27,21.28,1.65,1.64,3.55,3.53,5.59,5.55.57-.6,1.27-1.38,2.02-2.1,1.24-1.2,2.79-1.25,3.87-.18,1.06,1.05,1.04,2.65-.14,3.87-.73.75-1.55,1.41-2.4,2.17.5.53.82.88,1.15,1.22,6.23,6.23,12.47,12.47,18.7,18.7.4.4.82.81,1.13,1.28.69,1.07.5,2.37-.42,3.24-.88.84-2.12,1-3.14.34-.47-.31-.88-.73-1.28-1.13-11.2-11.19-22.4-22.38-33.57-33.6-.72-.72-1.39-1-2.41-.9-4.76.49-9.12-.68-13.11-3.3-1.8-1.18-3.61-2.33-5.37-3.56-.65-.45-1.17-.48-1.75.01-.76.65-1.57,1.27-2.28,1.98-13.06,13.05-26.12,26.11-39.17,39.16-.4.4-.8.82-1.27,1.14-1.06.72-2.51.51-3.35-.41-.82-.89-.92-2.27-.19-3.27.31-.42.69-.79,1.07-1.16,9.36-9.37,18.73-18.73,28.1-28.09.37-.36.87-.59,1.19-.81-6.5-6.5-12.72-12.72-19-18.99-2.64,2.64-5.39,5.4-8.15,8.16-3.81,3.82-7.63,7.63-11.44,11.44-.83.83-1.85,1.44-2.93.81-.74-.44-1.45-1.27-1.74-2.08-.39-1.09.43-1.96,1.2-2.73,5.43-5.42,10.86-10.85,16.29-16.28,4.22-4.21,8.44-8.42,12.79-12.75-1.33-1.35-2.64-2.62-3.88-3.95-4.02-4.3-2.95-11.13,2.17-13.95.45-.25.93-.47,1.39-.69-2.9-6.52,1.14-12.88,7.86-13.36.1-.61.16-1.25.31-1.87.87-3.71,3.81-6.37,7.61-6.82.8-.1,1.1-.35,1.2-1.17.44-3.53,2.36-6.02,5.68-7.25,3.36-1.26,6.52-.69,9.16,1.76,1.83,1.69,3.47,3.58,5.41,5.6.82-.89,1.43-1.62,2.1-2.29,2.13-2.15,4.32-4.25,6.41-6.43,2.79-2.92,6.06-4.19,9.98-2.82,3.85,1.34,5.72,4.28,6.08,8.31,5.35.58,8.34,3.58,8.95,8.91,5.75,1.03,8.06,3.34,8.94,8.96.66.12,1.35.2,2.02.36,6.56,1.62,9.03,9.58,4.51,14.6-1.32,1.46-2.75,2.83-4.17,4.2-.58.55-.76.98-.38,1.79,1.68,3.52,2.48,7.27,2.7,11.17.03.57.42,1.22.84,1.64,5.9,5.95,11.83,11.86,17.74,17.8.61.61,1.11,1.33,1.67,2v1.58ZM89.79,119.63c2.51-1.46,5.37-1.9,8.36-1.98,8.69-.21,16.56-2.97,22.9-8.89,8.17-7.63,15.92-15.7,23.86-23.58.06-.06.12-.13.17-.2,1.28-1.58,1.22-3.62-.16-5.01-1.36-1.36-3.47-1.43-5.01-.16-.34.28-.64.6-.95.91-2.64,2.63-5.28,5.27-7.91,7.91-.82.83-1.88,1.25-2.85.71-.74-.41-1.55-1.32-1.65-2.1-.1-.79.43-1.87,1.02-2.5,2.65-2.8,5.42-5.49,8.15-8.22.99-.99,1.57-2.13,1.29-3.54-.28-1.39-1.1-2.37-2.48-2.82-1.48-.48-2.77-.08-3.85,1-2.74,2.72-5.45,5.47-8.2,8.17-.49.48-1.07.94-1.7,1.16-1.14.4-2.34-.16-2.93-1.19-.62-1.08-.44-2.3.59-3.34,2.74-2.78,5.52-5.52,8.27-8.29,1.8-1.82,1.92-4.01.33-5.57-1.55-1.52-3.71-1.4-5.48.34-1.72,1.69-3.4,3.42-5.12,5.11-1.39,1.37-2.89,1.48-4.05.32-1.15-1.16-1.05-2.65.33-4.05,1.6-1.63,3.22-3.22,4.83-4.84,1.98-1.99,2.21-4.13.6-5.76-1.62-1.64-3.78-1.45-5.76.52-2.58,2.57-5.15,5.15-7.72,7.72-.3.3-.59.62-.89.94.37.42.68.74.96,1.07,2.28,2.73,2.84,5.81,1.58,9.1-1.25,3.25-3.7,5.16-7.18,5.59-.89.11-1.14.45-1.24,1.29-.48,3.98-3.65,7.22-7.54,7.62-1.02.11-1.27.5-1.4,1.42-.45,3.25-2.26,5.56-5.25,6.88-1.06.47-2.25.63-3.49.96-.26,3.78-2.19,6.55-5.6,8.13,5.07,5.07,10.09,10.09,15.17,15.16ZM101.01,122.98c3.74,2.77,7.75,3.76,12.15,2.93,1.5-.28,2.66-.02,3.65,1.13.61.72,1.28,1.39,1.86,2.03.33-.19.42-.22.48-.28,7.38-7.37,14.76-14.75,22.13-22.13.23-.23.52-.57.51-.86-.09-2.8-.59-5.52-1.94-8.57-.44.64-.66,1.09-1,1.43-3.89,3.92-7.81,7.81-11.71,11.73-5.3,5.33-11.54,9.09-18.8,11.05-2.35.63-4.77,1.01-7.33,1.54ZM61.29,109.96c6.21,6.23,12.42,12.46,18.51,18.55,1.79-1.78,3.68-3.66,5.37-5.34-6.14-6.14-12.36-12.36-18.55-18.54-1.74,1.74-3.59,3.6-5.32,5.33ZM79.56,90.86c2.1-.02,3.24-.72,3.91-2.11.69-1.43.43-2.96-.81-4.22-3.07-3.12-6.16-6.23-9.3-9.29-1.61-1.57-3.83-1.55-5.29-.07-1.44,1.45-1.41,3.71.15,5.3,3.04,3.09,6.1,6.17,9.22,9.18.68.65,1.68.98,2.11,1.22ZM101.68,68.75c-.24-.43-.57-1.42-1.22-2.1-3.01-3.12-6.09-6.17-9.18-9.22-1.59-1.57-3.82-1.61-5.29-.17-1.51,1.47-1.47,3.72.14,5.39,1.15,1.2,2.35,2.36,3.53,3.54,1.92,1.92,3.83,3.86,5.77,5.75,1.19,1.16,2.62,1.4,4.12.73,1.41-.63,2.09-1.8,2.13-3.91ZM92.76,77.85c-.16-.37-.44-1.09-.77-1.79-.09-.19-.27-.34-.42-.5-3.1-3.1-6.17-6.22-9.3-9.28-1.54-1.51-3.75-1.51-5.2-.11-1.38,1.33-1.58,3.57-.22,4.98,3.25,3.37,6.58,6.68,9.94,9.94,1.11,1.07,2.56,1.11,3.93.45,1.34-.65,1.98-1.8,2.04-3.69ZM71.05,99.95c1.58-.15,2.84-.9,3.47-2.22.66-1.4.56-2.79-.48-3.91-1.94-2.08-3.93-4.1-6.02-6.04-1.47-1.36-3.6-1.19-4.98.19-1.33,1.33-1.46,3.55-.11,4.99,1.91,2.04,3.9,4.01,5.95,5.92.56.53,1.44.72,2.17,1.07Z"/>
  <path class="cls-1" d="M65.52,32.63c1.42.77,1.93,1.94,1.87,3.56-.1,2.57-.02,5.16-.03,7.73-.01,1.89-1.07,3.05-2.69,3.01-1.56-.04-2.55-1.18-2.56-3.01-.01-2.58.07-5.16-.03-7.73-.06-1.62.45-2.79,1.87-3.56h1.58Z"/>
  <path class="cls-1" d="M136.05,32.63c1.42.77,1.93,1.95,1.87,3.57-.1,2.57-.02,5.16-.03,7.73-.01,1.89-1.07,3.05-2.7,3.01-1.57-.04-2.55-1.18-2.56-3.02-.01-2.58.07-5.16-.03-7.73-.06-1.62.45-2.79,1.87-3.56h1.58Z"/>
  <path class="cls-1" d="M167.36,65.53c-.78,1.41-1.95,1.93-3.57,1.87-2.57-.1-5.16-.02-7.74-.03-1.88-.01-3.05-1.08-3.01-2.7.04-1.56,1.18-2.55,3.02-2.56,2.58-.01,5.16.07,7.74-.03,1.62-.07,2.79.46,3.56,1.87v1.58Z"/>
  <path class="cls-1" d="M162.69,40.42c-.17.29-.44,1.01-.93,1.51-3.99,4.05-8.02,8.07-12.06,12.07-1.21,1.2-2.81,1.18-3.86.08-1.02-1.06-1.02-2.6.13-3.77,4.03-4.08,8.1-8.12,12.15-12.17.9-.9,1.97-1.14,3.12-.6,1,.46,1.49,1.32,1.44,2.87Z"/>
  <path class="cls-1" d="M55.27,52.29c-.66.85-1.11,1.71-1.8,2.25-.82.63-1.95.58-2.68-.15-4.37-4.29-8.71-8.61-12.99-12.99-.89-.91-.65-2.45.23-3.35.88-.89,2.31-1.03,3.36-.29.32.22.6.51.88.78,3.78,3.77,7.57,7.53,11.31,11.34.61.62,1.03,1.45,1.7,2.41Z"/>
  <path class="cls-1" d="M39.86,62.11c1.44,0,2.88-.03,4.33,0,1.68.04,2.79,1.14,2.76,2.68-.03,1.48-1.12,2.55-2.74,2.56-2.93.03-5.86.03-8.78,0-1.66-.02-2.81-1.18-2.78-2.68.03-1.45,1.16-2.5,2.76-2.57.09,0,.17,0,.26,0,1.4,0,2.8,0,4.2,0Z"/>
  <path class="cls-1" d="M141.11,127.04c1.45,0,2.58,1.13,2.59,2.58,0,1.43-1.14,2.61-2.56,2.64-1.44.03-2.71-1.24-2.68-2.67.03-1.42,1.21-2.55,2.65-2.54Z"/>
</svg>